<svg xmlns="http://www.w3.org/2000/svg" xmlns:xlink="http://www.w3.org/1999/xlink" width="283" height="80.068" viewBox="0 0 283 80.068">
  <defs>
    <clipPath id="clip-path">
      <rect id="Rectángulo_1610" data-name="Rectángulo 1610" width="72.539" height="80.068" fill="none"/>
    </clipPath>
    <clipPath id="clip-path-3">
      <rect id="Rectángulo_1607" data-name="Rectángulo 1607" width="11.203" height="8.026" fill="none"/>
    </clipPath>
    <clipPath id="clip-path-4">
      <rect id="Rectángulo_1608" data-name="Rectángulo 1608" width="10.657" height="8.422" fill="none"/>
    </clipPath>
    <clipPath id="clip-path-5">
      <rect id="Rectángulo_1611" data-name="Rectángulo 1611" width="205.245" height="54.378" fill="none"/>
    </clipPath>
  </defs>
  <g id="Grupo_11017" data-name="Grupo 11017" transform="translate(-67 -16.466)">
    <g id="Grupo_11014" data-name="Grupo 11014" transform="translate(67 16.466)">
      <g id="Grupo_11013" data-name="Grupo 11013" clip-path="url(#clip-path)">
        <g id="Grupo_11012" data-name="Grupo 11012">
          <g id="Grupo_11011" data-name="Grupo 11011" clip-path="url(#clip-path)">
            <path id="Trazado_1474" data-name="Trazado 1474" d="M72.539,43.632A36.27,36.27,0,1,1,36.27,7.362a36.27,36.27,0,0,1,36.27,36.27" transform="translate(0 -3.744)" fill="#e0cde8"/>
            <path id="Trazado_1475" data-name="Trazado 1475" d="M65.609,78.578c.051.02-.053-.017,0,0A3.25,3.25,0,0,0,67.6,76.471c-.031-.169-.257-.064-.291-.231-.085-.416.577-.72.5-1.139-.168-.942-.851-1.953-.546-2.74a6.381,6.381,0,0,1,1.4-5.678l-.027-.023a4.042,4.042,0,0,1-.413-.433,4.431,4.431,0,0,1-.588-1A7.435,7.435,0,0,1,67.1,63c-.191-2.015.03-4.032-.378-6.03a.939.939,0,0,0-1.7-.222c-.415.815-.842,1.625-1.24,2.448-.171.352-.336.707-.514,1.056a.94.94,0,0,1-.155-.142c-.1-.1-.191-.212-.279-.322a10.958,10.958,0,0,1-1.8-3.866c-.4-1.395-.695-2.819-1.1-4.213-.29-.995-.758-3.26-2.258-2.791a.82.82,0,0,0-.6.782c.318,2.513.96,5.381-.243,7.765a4.96,4.96,0,0,1-2.108,2.247,3.419,3.419,0,0,1-1.543.355,4.713,4.713,0,0,1-1.791-.159c-.48-.227-.764-.925-.975-1.381a9.661,9.661,0,0,1-.609-1.853,25.824,25.824,0,0,1-.539-4.046c-.213-2.89-.224-5.8-.146-8.7a.8.8,0,0,0-1.343-.556c-4.38,3.4-4.56,9.205-6.441,14.027-.153-.4-.248-.83-.347-1.162a27.625,27.625,0,0,1-.7-2.937,26.011,26.011,0,0,1-.387-5.933.806.806,0,0,0-1.49-.4c-1.529,2.378-2.027,5.159-2.925,7.8a23.779,23.779,0,0,1-4.476,7.217.417.417,0,0,0-.331.338,19.175,19.175,0,0,0-.391,4.24A4.045,4.045,0,0,0,28.5,74.081a10.1,10.1,0,0,1,2.447.337c.605-.556.487-1.559.5-.739.013,1.269.431,1.776.511,3.544.058,1.315.592,1.615,1.243,2.611.034.07.068.14.1.211.04.02.081.041.121.059-.02.035-.038.073-.056.11a3.154,3.154,0,0,1-.7,3.374l0,0c0,.085,0,.171,0,.257a19.2,19.2,0,0,0,1.278,6.289c.57,1.626,1.155,3.55,2.532,4.689a3.382,3.382,0,0,0,4.509-.129,3.83,3.83,0,0,0,1.245-2.4,4.914,4.914,0,0,0,0-1.03,1.16,1.16,0,0,0,.241-1.049A10.679,10.679,0,0,0,49.37,92.73a7.406,7.406,0,0,0,4.8-1.975,5.435,5.435,0,0,0,.723,3.392,3.974,3.974,0,0,0,5.067,1.265c1.743-.9,1.968-2.993,2.215-4.872a27.233,27.233,0,0,0,.5-3.021,25.407,25.407,0,0,1,.345-3.134c.2-1.457-.659-2.456-1.6-3.4a26.418,26.418,0,0,0,4.191-2.407" transform="translate(-13.478 -21.962)" fill="#ffece1"/>
            <path id="Trazado_1476" data-name="Trazado 1476" d="M85.707,126.5a2.413,2.413,0,0,1-1.943-3.216.373.373,0,0,0-.616-.369c-1.63,1.692-.581,4.323,1.324,5.1a10.888,10.888,0,0,0-.854,4.444,4.663,4.663,0,0,0,.623,2.281,2.488,2.488,0,0,0,.776.836,1.368,1.368,0,0,0,1.016.105.377.377,0,0,0,.254-.631c-.174-.188-.267-.464-.432-.677a2.757,2.757,0,0,1-.4-.678,4.932,4.932,0,0,1-.3-1.709,7.08,7.08,0,0,1,1.285-4.177.879.879,0,0,0-.73-1.307" transform="translate(-41.881 -62.462)" fill="#ffb7a7"/>
            <path id="Trazado_1477" data-name="Trazado 1477" d="M53.461,128.334a9.85,9.85,0,0,0-.347-1.55,2.515,2.515,0,0,0-.571-1.155,1.048,1.048,0,0,0-.912-.265,13.19,13.19,0,0,0-1.484-2.094,4.243,4.243,0,0,0,2.779-2.055c.667-1.37.514-3.543-1-4.252a.08.08,0,0,0-.119.068,14.327,14.327,0,0,0,.022,1.767,2.511,2.511,0,0,1-.477,1.725,5.663,5.663,0,0,1-3.034,1.454.846.846,0,0,0-.371,1.4,9.608,9.608,0,0,1,2.708,4.061c.449,1.294.821,2.99.149,4.281-.182.349.2.794.564.564a3.1,3.1,0,0,0,1.428-2.186.554.554,0,0,0,.565-.227,2.245,2.245,0,0,0,.1-1.539" transform="translate(-24.258 -59.484)" fill="#ffb7a7"/>
            <path id="Trazado_1478" data-name="Trazado 1478" d="M71.452,124.773a1.99,1.99,0,0,0-.811.02c-.294.071-.58.172-.876.232a8.774,8.774,0,0,1-1.787.129,11.188,11.188,0,0,1-1.669-.1,3.044,3.044,0,0,1-.766-.2,2.72,2.72,0,0,0-.917-.361.521.521,0,0,0-.517.517c.023.814.991,1.24,1.659,1.443a7.719,7.719,0,0,0,2.158.208,7.485,7.485,0,0,0,2.221-.253c.686-.207,1.468-.6,1.474-1.416a.23.23,0,0,0-.168-.22" transform="translate(-32.606 -63.318)" fill="#ffb7a7"/>
            <path id="Trazado_1479" data-name="Trazado 1479" d="M66.652,52.968a37.269,37.269,0,0,0-2.684,7,23.37,23.37,0,0,0-.6,3.625,8.476,8.476,0,0,0,.171,3.749c.234.567,1.177.745,1.337,0a28.653,28.653,0,0,0,.162-3.591,12.67,12.67,0,0,0,.289,1.675c.079.314.17.628.277.932.085.24.2.587.505.608.591.042.2-.953.129-1.215a14.726,14.726,0,0,1-.441-2.21,17.279,17.279,0,0,1,.063-4.359.267.267,0,0,0,0-.1c.437-1.957.953-3.9,1.4-5.853.081-.35-.437-.612-.609-.257" transform="translate(-32.169 -26.854)" fill="#ffb7a7"/>
            <path id="Trazado_1480" data-name="Trazado 1480" d="M78.711,82.672c-.252-.438-.8-.48-1.264-.488q-.552-.01-1.1-.046l-1.1-.069a3.475,3.475,0,0,0-.567-.019c-.189.019-.376.046-.565.066a.457.457,0,0,0-.423.322.442.442,0,0,0,.2.5,4.4,4.4,0,0,0,1.1.422c.422.087.844.153,1.273.2q.57.06,1.143.094a3.2,3.2,0,0,0,.624-.037.828.828,0,0,0,.681-.417.523.523,0,0,0,0-.521" transform="translate(-37.473 -41.728)" fill="#ffb7a7"/>
            <path id="Trazado_1481" data-name="Trazado 1481" d="M94.185,70.945c-.044-.564-.082-1.124-.118-1.688-.009-.139-.229-.189-.258-.035a10.042,10.042,0,0,1-.419,1.558c-.178.493-.3,1-.458,1.5s-.271,1.017-.423,1.521a5.453,5.453,0,0,0-.37,1.624c.01.434.606.756.921.382a3.942,3.942,0,0,0,.681-1.544,11.541,11.541,0,0,0,.365-1.708,8.74,8.74,0,0,0,.079-1.614" transform="translate(-46.863 -35.159)" fill="#ffb7a7"/>
            <path id="Trazado_1482" data-name="Trazado 1482" d="M104.334,83.8c-.022-.145-.044-.291-.066-.437q-.065-.429-.129-.858c-.025-.166-.3-.126-.293.04q.018.435.036.87.008.214.017.427a.673.673,0,0,0,.039.262c.029.063.063.125.1.187a.142.142,0,0,0,.257-.033c.021-.068.047-.138.061-.207a.717.717,0,0,0-.018-.25" transform="translate(-52.817 -41.907)" fill="#ffb7a7"/>
            <path id="Trazado_1483" data-name="Trazado 1483" d="M75.327,36.431q-.016-.293-.036-.587a15.254,15.254,0,0,0-.878-4.716,40.238,40.238,0,0,0-6.591-10.973,16.492,16.492,0,0,0-1.416-1.426l-.032-.026a7.552,7.552,0,0,0,1.149-1.573,9.292,9.292,0,0,0,1.1-3.963,10.115,10.115,0,0,0-2.842-7.476C61.695,1.338,54.269.227,49.292,3.708c-2.339,1.637-4.722,4.824-4.041,7.82a16.055,16.055,0,0,0-7.006.829,17.468,17.468,0,0,0-3.386,1.611,6.031,6.031,0,0,1-1.6.859,1.251,1.251,0,0,1-.818-.022c-.222-.1-.536-.439-.327-.706.5-.583-.314-1.426-.854-.854a1.708,1.708,0,0,0-.341.529,3.892,3.892,0,0,0-.285,2.9,31.719,31.719,0,0,0-9.959,10,18.6,18.6,0,0,0-2.408,13.713A14.049,14.049,0,0,0,22,47.06a.77.77,0,0,0,.742.2c.859-.237,2-1.958,2.794-1.374.647.474.792-.187.9-.935.2-1.311.4-2.62.608-3.93.028.052.059.1.086.153a.779.779,0,0,0,.874.356,1.65,1.65,0,0,0,.916-.723c.179-.284.2-.576.528-.622.3-.04.738.228,1.033.3a2.326,2.326,0,0,0,1.151.028,1.979,1.979,0,0,0,1.258-2.035c.058-1.168.081-2.323.221-3.486a31.089,31.089,0,0,1,2.093-8A47.854,47.854,0,0,0,34.7,34.95c.023,1.18-.113,2.656.8,3.562a11.954,11.954,0,0,0,1.6,1.182l1.83,1.287a.827.827,0,0,0,1.21-.492,40.571,40.571,0,0,1,3.01-10.45c-.09.593-.172,1.187-.242,1.781a39.2,39.2,0,0,0-.274,4.979c.014,1.345-.168,3.169.874,4.207,1.008,1,2.652.829,3.946.831,1.759,0,3.517.024,5.276.035a2.07,2.07,0,0,0,1.765-.585,2.134,2.134,0,0,0,.394-.758,6.589,6.589,0,0,0,.9.406,8.4,8.4,0,0,1,3.588,2.036c.5.59.891,1.259,1.35,1.877.529.712,1.135,1.369,1.681,2.069a.629.629,0,0,0,.764.1c1.407-.942,2.72-2.114,4.533-1.73a4.431,4.431,0,0,1,3.169,2.565A.734.734,0,0,0,72.012,48c3.31-3.182,3.555-7.313,3.315-11.566" transform="translate(-9.064 -0.838)" fill="#ffd576"/>
            <path id="Trazado_1484" data-name="Trazado 1484" d="M18.506,60.752a11.09,11.09,0,0,0-.021,5.911,6.544,6.544,0,0,0,3.86,4.291A2.4,2.4,0,0,0,24,71.035a3,3,0,0,0,1.443-2.2,41.335,41.335,0,0,0,1.144-6.143,17.949,17.949,0,0,0,.049,6.679,3.84,3.84,0,0,1,.12,1.113,4.129,4.129,0,0,1-.224.855A10.619,10.619,0,0,0,26.1,75.9a4.349,4.349,0,0,0-2.407.607,4.569,4.569,0,0,1-1.086.586,2.28,2.28,0,0,1-1.761-.4,7.147,7.147,0,0,1-2.669-3.732c-1.215-3.346-1.163-7.136.329-12.211" transform="translate(-8.81 -30.899)" fill="#e2a359"/>
            <path id="Trazado_1485" data-name="Trazado 1485" d="M52.672,51.458a16.672,16.672,0,0,0-.9,4.022,5.609,5.609,0,0,0,1.1,3.883,1.927,1.927,0,0,0,1.812.823,2.4,2.4,0,0,0,1.251-1.059,45.464,45.464,0,0,0,3.556-5.768c-1.8,4.1-3.2,8.586-2.543,13.02A15.3,15.3,0,0,0,52.683,64.2a1.553,1.553,0,0,1-.741-.394,1.48,1.48,0,0,1-.261-.665,24.777,24.777,0,0,1-.7-4.826c-.02-1.628.3-3.3,1.69-6.857" transform="translate(-25.93 -26.172)" fill="#e2a359"/>
            <path id="Trazado_1486" data-name="Trazado 1486" d="M36.139,58.146a5.861,5.861,0,0,0,.477,3.237,2.065,2.065,0,0,0,.756.958,1.7,1.7,0,0,0,1.8-.206,4.987,4.987,0,0,0,1.206-1.482l3.3-5.327a21.2,21.2,0,0,0-1.7,9.916A15.2,15.2,0,0,0,36.54,67.9c-.117.09-.272.187-.4.117a.379.379,0,0,1-.149-.212,13.278,13.278,0,0,1,.15-9.665" transform="translate(-17.878 -28.139)" fill="#e2a359"/>
            <path id="Trazado_1487" data-name="Trazado 1487" d="M69.1,52.623a15.365,15.365,0,0,0,.051,5.69A2.02,2.02,0,0,0,70.2,59.806c.593.222,1.406-.4,1.117-.96a3.409,3.409,0,0,0,2.835,2.144c2.125.181,3.933-1.728,4.558-3.767s.416-4.226.549-6.355l1.846,7.956a.918.918,0,0,0,.157.39c.346.416,1.042-.081,1.136-.615s-.069-1.121.183-1.6a10.259,10.259,0,0,0,1.135,2.852,1.435,1.435,0,0,0,.443.525,1.064,1.064,0,0,0,1.356-.415,3.1,3.1,0,0,0,.394-1.5l-.688,7.388a4.311,4.311,0,0,0-4.376-2.112,1.774,1.774,0,0,0-1.5,1.069,1.435,1.435,0,0,1-.176.53.866.866,0,0,1-.553.245,58.374,58.374,0,0,1-8.994.876.971.971,0,0,1-.6-.12.955.955,0,0,1-.3-.537c-1.115-3.835-1.041-8.007.381-13.18" transform="translate(-34.561 -25.872)" fill="#e2a359"/>
            <path id="Trazado_1488" data-name="Trazado 1488" d="M102.375,70.144A8.362,8.362,0,0,0,111.8,75.7a6.558,6.558,0,0,0,4.629-3.121,10.6,10.6,0,0,0,.81-5.3,16.806,16.806,0,0,1-.535,10.2c-.667,1.736-1.039,3.366-2.687,4.224-2.115,2.605-5.5,5.431-7.234,5.193s-.819-8.052-1.8-6.6c-.182-.577.278-.9.1-1.473a.733.733,0,0,0-.246-.417c-.138-.091-.373-.035-.391.129A3.83,3.83,0,0,0,103.371,76c-.282-.223-.622-.361-.907-.58a2.674,2.674,0,0,1-.916-2.121,9.053,9.053,0,0,1,.828-3.156" transform="translate(-51.648 -34.219)" fill="#e2a359"/>
            <path id="Trazado_1489" data-name="Trazado 1489" d="M75.348,8.222a1.5,1.5,0,0,0,1.559,2.557,3,3,0,0,0,.81-.734l2.9-3.36a3.272,3.272,0,0,0-.231,3.581c.726,1.043,2.6,1.161,3.171.028.638,2.255,2.736,3.779,4.85,4.79a7.624,7.624,0,0,0,2.812.855,4.75,4.75,0,0,0,4.809-4.748,14.583,14.583,0,0,1-2.236,9.98,3.882,3.882,0,0,0-1.723-2.005,29.71,29.71,0,0,0-10.5-4.646,6.558,6.558,0,0,0-2.787-.173,2.609,2.609,0,0,0-2.037,1.73,7.165,7.165,0,0,0-4.213-1.766,30.378,30.378,0,0,1,2.813-6.089" transform="translate(-36.892 -3.401)" fill="#e2a359"/>
            <path id="Trazado_1490" data-name="Trazado 1490" d="M75.9,5.5A12.747,12.747,0,0,1,85.967.213,9.825,9.825,0,0,1,95.076,6.5c-2.488-2.922-6.687-3.615-10.522-3.77-1.975-.08-4.364.168-5.248,1.936a5.379,5.379,0,0,0,1.772-1A15.213,15.213,0,0,0,79.185,6.92c.486-.486.011-1.408-.661-1.554a2.463,2.463,0,0,0-1.9.628,10.088,10.088,0,0,0-2.714,3.029c.073-2.051.925-4.064,1.984-3.524" transform="translate(-37.593 -0.108)" fill="#fff4b6"/>
            <path id="Trazado_1491" data-name="Trazado 1491" d="M31.639,32.9A21.236,21.236,0,0,0,18.966,50.494a19.87,19.87,0,0,1,6.889-10.206A4.7,4.7,0,0,0,26.075,42,11.212,11.212,0,0,1,27.9,40.79c.455.338.4,1.084.826,1.457.539.471,1.379.023,1.874-.494s1.05-1.165,1.76-1.074,1.1.9,1.305,1.595a19.75,19.75,0,0,1,.725,3.833,30.108,30.108,0,0,1,4.437-9.016A11.868,11.868,0,0,0,35.2,40.037c.41-.89-.515-1.929-1.491-2.02a4.672,4.672,0,0,0-2.73.941c.618-.774-.326-1.986-1.316-1.986a4.03,4.03,0,0,0-2.543,1.39A13.182,13.182,0,0,1,31.639,32.9" transform="translate(-9.646 -16.733)" fill="#fff4b6"/>
            <path id="Trazado_1492" data-name="Trazado 1492" d="M94.721,44.581a5.239,5.239,0,0,0,1.634,1.075,1.78,1.78,0,0,0,1.837-.318,2.717,2.717,0,0,1,.429-.446c.49-.315,1.1.1,1.59.418a5.307,5.307,0,0,0,6.7-.963,2.426,2.426,0,0,0,.656-1.4,3.156,3.156,0,0,0-.243-1.179l-1.194-3.466a25.717,25.717,0,0,1,6.22,12.232,10.8,10.8,0,0,0-2.768-2.958,1.508,1.508,0,0,0-.8-.355c-1.05-.039-1.189,1.665-2.123,2.145a3.254,3.254,0,0,0-4.174-.922c-.386.227-.773.55-1.218.494a1.562,1.562,0,0,1-.66-.314l-2.27-1.566a28.109,28.109,0,0,0-1.412,5.048,69.868,69.868,0,0,0-2.2-7.529" transform="translate(-48.176 -19.482)" fill="#fff4b6"/>
            <path id="Trazado_1493" data-name="Trazado 1493" d="M71.259,48.2a13.68,13.68,0,0,0,.789,3.115,1.085,1.085,0,0,0,1.243-.893,2.955,2.955,0,0,0,1.934,1.662,8.735,8.735,0,0,0,2.615.275,1.569,1.569,0,0,0,.671-.1,1.423,1.423,0,0,0,.656-1.032,6.469,6.469,0,0,0,.062-2.679,11.392,11.392,0,0,1,.792,5.391,2.743,2.743,0,0,1-1.2-.605c-.388-.239-.967-.346-1.243.016a2.006,2.006,0,0,0-.219.586c-.069.2-.231.4-.44.383a.626.626,0,0,1-.3-.147,5.465,5.465,0,0,0-1.852-.868,4.617,4.617,0,0,1-2.207-.8c-.08-.078-.171-.171-.281-.157a.334.334,0,0,0-.183.118,12.134,12.134,0,0,0-1.69,2.187,13.386,13.386,0,0,1,.857-6.451" transform="translate(-35.758 -24.514)" fill="#fff4b6"/>
            <path id="Trazado_1494" data-name="Trazado 1494" d="M55.2,43.966a19.784,19.784,0,0,0,.367,2.6,1.69,1.69,0,0,0,1.422-.65,4.875,4.875,0,0,0,.781,1.849,1.3,1.3,0,0,0,1.174.7,1.478,1.478,0,0,0,.784-.568l2.533-2.89a30.271,30.271,0,0,0-4.007,7.436,3.517,3.517,0,0,0-.369-2.256c-.446-.637-1.566-.819-1.95-.143a2.718,2.718,0,0,0-.12-1.767.806.806,0,0,0-.338-.427.889.889,0,0,0-.814.137,6.1,6.1,0,0,0-2.642,3.075l1.455-4.686A4.215,4.215,0,0,1,55.2,43.966" transform="translate(-26.46 -22.362)" fill="#fff4b6"/>
            <path id="Trazado_1495" data-name="Trazado 1495" d="M57.588,130.684a13.944,13.944,0,0,1,1.438-3.531,3.422,3.422,0,0,1,.831-1.046,1.383,1.383,0,0,1,1.263-.266q-1.375,3.02-2.621,6.1a5.132,5.132,0,0,0-.911-1.253" transform="translate(-29.29 -63.974)" fill="#fdfbee"/>
            <path id="Trazado_1496" data-name="Trazado 1496" d="M79.513,125.9l1.474-.182c-.067-.09-.186.058-.194.171a3.814,3.814,0,0,0,.95,2.766,1.74,1.74,0,0,1,.282.363,1.394,1.394,0,0,1,.108.392l.218,1.273a.591.591,0,0,1-.139.571l-.7,1c-.794-2.121-1.437-4.3-2-6.357" transform="translate(-40.441 -63.929)" fill="#fdfbee"/>
            <path id="Trazado_1497" data-name="Trazado 1497" d="M82.387,110.882l.168-2.741" transform="translate(-41.903 -55.002)" fill="#fdfbee"/>
            <path id="Trazado_1498" data-name="Trazado 1498" d="M62.415,126.119c-.218,1.43,2.2,8.869,2.793,10.189s2.2,2.292,3.516,1.684a16.212,16.212,0,0,0,1.939,3.285,10.709,10.709,0,0,1-3,1.491,26.937,26.937,0,0,1-21.329-1.7c-.224-.12-.481-.315-.427-.563a.6.6,0,0,1,.147-.248l1.609-1.915a1.9,1.9,0,0,1,.487-.457,2.222,2.222,0,0,1,.568-.189,5.287,5.287,0,0,0,3.14-2.129,3.932,3.932,0,0,0,.375-3.7c.838.792,1.708-5.63,2.69-5.028s1.965,1.907,3.107,1.8c2.86-.268,2.866-.458,4.389-2.52" transform="translate(-23.344 -64.146)" fill="#fdfbee"/>
            <path id="Trazado_1499" data-name="Trazado 1499" d="M50.336,83.076A5.986,5.986,0,1,1,44.35,77.09a5.986,5.986,0,0,1,5.986,5.986" transform="translate(-19.512 -39.209)" fill="#fff"/>
            <path id="Trazado_1500" data-name="Trazado 1500" d="M94.189,83.563A5.986,5.986,0,1,1,88.2,77.577a5.986,5.986,0,0,1,5.986,5.986" transform="translate(-41.817 -39.457)" fill="#fff"/>
            <path id="Trazado_1501" data-name="Trazado 1501" d="M107.377,89.286a21.921,21.921,0,0,0-.879,4.32,7.349,7.349,0,0,0,.878,4.26c1.459,2.434,4.465,3.331,7.056,4.491a4.416,4.416,0,0,1,1.486.946,1.692,1.692,0,0,1,.445,1.631,2.205,2.205,0,0,1-.69.9,8.324,8.324,0,0,1-2.271,1.418,4.875,4.875,0,0,0,3.411-.928,1.649,1.649,0,0,0,.518-.56,1.565,1.565,0,0,0,.121-.781,5.243,5.243,0,0,0-2.2-3.682,25.04,25.04,0,0,0-3.842-2.18,5.531,5.531,0,0,1-2.119-1.665,5.281,5.281,0,0,1-.721-2.368,18.7,18.7,0,0,1,.533-7.049,14.747,14.747,0,0,0-2.182,2.844" transform="translate(-54.156 -44.778)" fill="#ffd576"/>
            <path id="Trazado_1502" data-name="Trazado 1502" d="M24.035,108.142a1.745,1.745,0,0,0,.174,1.629,1.584,1.584,0,0,0,1.3.429,4.02,4.02,0,0,0,2.542-1.23,8.241,8.241,0,0,0,1.577-2.4,4.277,4.277,0,0,0,.282,2.63,11.9,11.9,0,0,1-3.122,2.084,4.073,4.073,0,0,1-3.033.1,2.521,2.521,0,0,1-1.6-2.428,3.538,3.538,0,0,1,1.262-2.105c.4-.375,1.044-.943,1.6-.786-.068.681-.776,1.376-.982,2.082" transform="translate(-11.263 -53.93)" fill="#ffd576"/>
            <path id="Trazado_1503" data-name="Trazado 1503" d="M76.875,153.645h0l-.033.005h.014l.016,0" transform="translate(-39.084 -78.145)" fill="#ddcca6"/>
            <path id="Trazado_1504" data-name="Trazado 1504" d="M74.865,4.25a7.96,7.96,0,0,0-6.089,2.294,4.824,4.824,0,0,0-1.216,4.682A2.554,2.554,0,0,0,69.49,12.92a.149.149,0,0,0,.08-.287c-2.049-.692-2.031-3.21-1.119-4.811,1.25-2.193,4-3.223,6.414-3.282a.145.145,0,0,0,0-.289" transform="translate(-34.258 -2.159)" fill="#ad6f32"/>
            <path id="Trazado_1505" data-name="Trazado 1505" d="M119.415,19.8a2.988,2.988,0,0,1,2.57,1.588A3.768,3.768,0,0,1,122,24.659a6.321,6.321,0,0,1-4.465,3.2c-.106.023-.074.174.025.181a5.28,5.28,0,0,0,3.152-1.185,4.649,4.649,0,0,0,1.848-2.432,3.885,3.885,0,0,0-.455-3.377,3.189,3.189,0,0,0-2.687-1.379.066.066,0,0,0,0,.132" transform="translate(-59.745 -10.003)" fill="#ad6f32"/>
            <path id="Trazado_1506" data-name="Trazado 1506" d="M70.429,104.915a6.01,6.01,0,0,1-1.163,1.109,4.471,4.471,0,0,1-2.8.85,7.991,7.991,0,0,1-3.629-1.368c-.155-.095-.3.142-.172.257a5.719,5.719,0,0,0,5.6,1.578,5.937,5.937,0,0,0,2.689-1.936,5.854,5.854,0,0,1-.523-.49" transform="translate(-31.849 -53.361)" fill="#6d1e16"/>
            <path id="Trazado_1507" data-name="Trazado 1507" d="M49.127,78.183c-.127-1.281-1.59-2.239-2.673-2.712a7.08,7.08,0,0,0-3.615-.578,7.44,7.44,0,0,0-5.778,3.486,4.025,4.025,0,0,0-.211,3.54.361.361,0,0,0,.706-.1,5.337,5.337,0,0,1,3.857-4.778,6.524,6.524,0,0,1,3.515-.2,5.277,5.277,0,0,1,1.652.691,9.336,9.336,0,0,0,1.781,1.228.608.608,0,0,0,.766-.583" transform="translate(-18.583 -38.071)" fill="#6d1e16"/>
            <path id="Trazado_1508" data-name="Trazado 1508" d="M105.2,85.878a1.3,1.3,0,0,0,1.238.9,1.347,1.347,0,0,0,.808-.339c.219-.183.457-.6.235-.859a.232.232,0,0,0-.222-.058.337.337,0,0,0-.2.146c-.031.039.043-.042-.015.017-.016.016-.03.033-.047.05-.07.068-.135.142-.206.209-.017.016-.035.03-.053.046s.042-.026-.01.007a1.188,1.188,0,0,1-.133.079c-.026.014-.055.025-.011.007l-.066.024c-.05.016-.1.026-.15.037l-.068.014c-.032.007.042,0-.017,0s-.095,0-.143,0c-.08,0,.041.013-.039,0-.024,0-.047-.009-.07-.016a1.316,1.316,0,0,1-.136-.043.907.907,0,0,1-.405-.342.158.158,0,0,0-.288.121" transform="translate(-53.502 -43.496)" fill="#ad6f32"/>
            <path id="Trazado_1509" data-name="Trazado 1509" d="M89.155,80.772a4.866,4.866,0,1,0,4.223,5.243,4.762,4.762,0,0,0-4.223-5.243m3.093,5.144a.964.964,0,0,1-.207.121l-.052.017s0,0-.009.005a1.13,1.13,0,0,1-.177.057c-.627.148-1.123-.371-1.423-.849a3.283,3.283,0,0,1-.493-1.651,1.288,1.288,0,0,1,.966-1.368c.678-.126,1.138.5,1.353,1.054.036.094.07.193.1.292a3.01,3.01,0,0,1,.355,1.312,1.377,1.377,0,0,1-.188.756.86.86,0,0,1-.228.252" transform="translate(-42.765 -41.073)" fill="#6d1e16"/>
            <path id="Trazado_1510" data-name="Trazado 1510" d="M47.033,79.392a4.866,4.866,0,1,0,4.223,5.243,4.762,4.762,0,0,0-4.223-5.243m2.1,4.824a1.6,1.6,0,0,1-1.59-1.234,2.272,2.272,0,0,1-.054-1.433c0-.012,0-.026,0-.038a.837.837,0,0,1,.663-.822.9.9,0,0,1,.335.012.559.559,0,0,1,.587.169.488.488,0,0,1,.093.166A2.852,2.852,0,0,1,50.2,82.516a1.375,1.375,0,0,1-.068.953,1.314,1.314,0,0,1-1,.748" transform="translate(-21.341 -40.371)" fill="#6d1e16"/>
            <path id="Trazado_1511" data-name="Trazado 1511" d="M84.773,76.254a5.991,5.991,0,0,1,1.688-1.18,5.011,5.011,0,0,1,.939-.354c.341-.092.657-.221.989-.337.1-.036.128-.213,0-.237a2.371,2.371,0,0,0-1.114.01,5.8,5.8,0,0,0-1.073.418,5.073,5.073,0,0,0-1.691,1.478c-.116.152.132.336.261.2" transform="translate(-42.969 -37.68)" fill="#6d1e16"/>
            <path id="Trazado_1512" data-name="Trazado 1512" d="M57.569,73.729a5.376,5.376,0,0,0-.5-.888,3.014,3.014,0,0,0-.8-.738,3.175,3.175,0,0,0-.956-.463,2.812,2.812,0,0,0-.492-.107,2.264,2.264,0,0,0-.533.044.142.142,0,0,0-.033.257c.135.06.26.137.393.2s.287.107.427.173a7.882,7.882,0,0,1,.842.454c.264.168.485.383.736.567a3.054,3.054,0,0,1,.633.669.167.167,0,0,0,.287-.168" transform="translate(-27.558 -36.381)" fill="#6d1e16"/>
            <path id="Trazado_1513" data-name="Trazado 1513" d="M39.962,124.454c-.321-3.181-2.171-8.193,1.339-10.319a4.468,4.468,0,0,1,4.489-.094,4.989,4.989,0,0,1,2.633,4.075,2.868,2.868,0,0,1-1.509,2.324,2.95,2.95,0,0,1-2.738.177c-.132-.055-.269.132-.188.245,1.116,1.558,3.681.193,4.54-.973,1.243-1.688.462-3.994-.822-5.423a5.541,5.541,0,0,0-5.182-1.79,5.144,5.144,0,0,0-4.022,3.907,10.937,10.937,0,0,0-.076,3.938,11.589,11.589,0,0,0,1.086,4.056c.109.2.474.121.449-.122" transform="translate(-19.472 -57.257)" fill="#6d1e16"/>
            <path id="Trazado_1514" data-name="Trazado 1514" d="M84.992,124.71a2.44,2.44,0,0,1-2.451-2.4,4.042,4.042,0,0,1,1.977-3.318,5.669,5.669,0,0,1,1.971-.91,2.737,2.737,0,0,1,2.133.621,4.46,4.46,0,0,1,2.072,2.94,14.562,14.562,0,0,1-.386,3.985c-.028.168.2.3.3.125a7.986,7.986,0,0,0,.865-4.222,5.149,5.149,0,0,0-2.51-3.674,3.486,3.486,0,0,0-2.555-.66,6.17,6.17,0,0,0-2.394,1.069,4.808,4.808,0,0,0-2.3,4.113,2.816,2.816,0,0,0,3.339,2.76.22.22,0,0,0-.058-.43" transform="translate(-41.556 -59.587)" fill="#6d1e16"/>
            <path id="Trazado_1515" data-name="Trazado 1515" d="M82.394,23.3c2.76-2.632,6.52-1.278,9.406.388A34.952,34.952,0,0,1,99.965,30.2a28.407,28.407,0,0,1,5.685,8.96,29.9,29.9,0,0,1,2.264,9.744,12.637,12.637,0,0,1-3.762,9.859c-.084.078.039.2.124.124,5.673-4.765,4.769-12.759,2.469-19.027A32.023,32.023,0,0,0,92.37,23.315c-3.164-1.8-7.271-3.2-10.212-.247a.167.167,0,0,0,.235.235" transform="translate(-41.762 -10.862)" fill="#6d1e16"/>
            <path id="Trazado_1516" data-name="Trazado 1516" d="M73.776,10.257A10.916,10.916,0,0,1,83.393.936,12.673,12.673,0,0,1,95.84,8.016a7.5,7.5,0,0,1-1.2,8.32c-.205.227.068.644.345.448,2.294-1.625,2.93-4.8,2.3-7.42A12.245,12.245,0,0,0,92.4,2.533c-4.516-3.248-10.819-3.545-15.185.116a10.672,10.672,0,0,0-3.836,7.608c-.012.258.368.247.395,0" transform="translate(-37.323 0)" fill="#6d1e16"/>
            <path id="Trazado_1517" data-name="Trazado 1517" d="M86.4,6.361A10.8,10.8,0,0,0,84.28,9.836c-.417,1.149-.857,2.678-.028,3.741.072.092.207-.009.183-.107a6.144,6.144,0,0,1,.41-3.6,10.781,10.781,0,0,1,1.85-3.211c.171-.205-.115-.5-.3-.3" transform="translate(-42.613 -3.2)" fill="#ad6f32"/>
            <path id="Trazado_1518" data-name="Trazado 1518" d="M87.145,13.147a11.263,11.263,0,0,0-.844,1.218q-.19.318-.358.648a3.4,3.4,0,0,0-.3.682.1.1,0,0,0,.176.074c.124-.2.206-.432.312-.645s.226-.439.349-.653a11.035,11.035,0,0,1,.813-1.207c.066-.086-.084-.2-.151-.117" transform="translate(-43.559 -6.671)" fill="#ad6f32"/>
            <path id="Trazado_1519" data-name="Trazado 1519" d="M88.28,45.815a32.888,32.888,0,0,1,2.553,8.467A17.419,17.419,0,0,1,90.7,58.7a25.079,25.079,0,0,0-.5,4.4.247.247,0,0,0,.483.065,24.8,24.8,0,0,0,.863-8.981,31.179,31.179,0,0,0-2.925-8.516c-.087-.192-.425-.054-.344.145" transform="translate(-44.894 -23.181)" fill="#ad6f32"/>
            <path id="Trazado_1520" data-name="Trazado 1520" d="M70.234,42.46a22.037,22.037,0,0,0-1.641,5.108,51.044,51.044,0,0,0-.966,5.193c-.4,3.036-.971,7.025.979,9.669a.075.075,0,0,0,.136-.057,25.221,25.221,0,0,1-.732-4.721,30.381,30.381,0,0,1,.365-5.058c.233-1.669.533-3.331.9-4.975.379-1.681.969-3.338,1.243-5.038.027-.163-.2-.292-.288-.121" transform="translate(-34.192 -21.555)" fill="#ad6f32"/>
            <path id="Trazado_1521" data-name="Trazado 1521" d="M72.383,79.677a5.822,5.822,0,0,0,.182-1.2,8.013,8.013,0,0,0-.063-1.208.254.254,0,0,0-.246-.245.247.247,0,0,0-.246.245c.056.476.124.95.189,1.424l.1.692a1.351,1.351,0,0,0,.218.659.112.112,0,0,0,.2-.026,1.306,1.306,0,0,0,.046-.669q-.043-.36-.086-.72c-.058-.476-.113-.951-.18-1.425l-.474.13a7.676,7.676,0,0,1,.085,1.143c0,.386.008.77-.023,1.154-.014.173.261.208.3.041" transform="translate(-36.625 -39.177)" fill="#ad6f32"/>
            <path id="Trazado_1522" data-name="Trazado 1522" d="M74.081,83.267c.8,0,1.6,0,2.393-.031l1.2-.043a3.766,3.766,0,0,0,1.143-.169.146.146,0,0,0,0-.279,3.714,3.714,0,0,0-1.143-.065l-1.2.069c-.8.047-1.6.123-2.393.194a.162.162,0,0,0,0,.324" transform="translate(-37.599 -42.044)" fill="#ad6f32"/>
            <path id="Trazado_1523" data-name="Trazado 1523" d="M86.6,75.556q-.007.581-.015,1.162l-.007.57a4.877,4.877,0,0,0,.036.593.11.11,0,0,0,.219,0,5.084,5.084,0,0,0,.038-.593c0-.19,0-.38-.005-.57q-.005-.581-.011-1.162a.127.127,0,0,0-.254,0" transform="translate(-44.033 -38.366)" fill="#ad6f32"/>
            <path id="Trazado_1524" data-name="Trazado 1524" d="M67.682,44.948a28.959,28.959,0,0,0-2.358,4.663,38.884,38.884,0,0,0-1.8,4.868c-.926,3.168-1.58,6.883-.5,10.089a.1.1,0,0,0,.2-.027,44.292,44.292,0,0,1,.04-4.946,26.8,26.8,0,0,1,1.017-5.179c.466-1.592,1.061-3.138,1.682-4.675a49.3,49.3,0,0,0,1.916-4.708.11.11,0,0,0-.2-.085" transform="translate(-31.772 -22.836)" fill="#ad6f32"/>
            <path id="Trazado_1525" data-name="Trazado 1525" d="M55.138,40.082A12.323,12.323,0,0,0,53.872,42.2c-.423.785-.809,1.59-1.175,2.4a26.03,26.03,0,0,0-1.674,4.73c-.7,2.995-.852,6.567.833,9.274.084.135.315.05.264-.112a16.433,16.433,0,0,1-.341-9.33,28.548,28.548,0,0,1,1.654-4.57c.333-.736.691-1.461,1.039-2.19a13.558,13.558,0,0,0,.956-2.148c.045-.16-.177-.31-.293-.171" transform="translate(-25.699 -20.358)" fill="#ad6f32"/>
            <path id="Trazado_1526" data-name="Trazado 1526" d="M51.855,49.517a18.443,18.443,0,0,0-3.109,12.972c.017.1.174.074.172-.023a26.289,26.289,0,0,1,.539-6.671,22.449,22.449,0,0,1,2.473-6.234c.029-.049-.045-.091-.076-.044" transform="translate(-24.688 -25.175)" fill="#ad6f32"/>
            <path id="Trazado_1527" data-name="Trazado 1527" d="M30.275,31.843c-4.414,2.94-8.613,6.313-11.144,11.079A19.164,19.164,0,0,0,17.35,57.115a8.712,8.712,0,0,0,4.382,5.654.211.211,0,0,0,.212-.364c-3.7-2.759-4.751-7.407-4.33-11.813a21.49,21.49,0,0,1,6.31-12.845A46.893,46.893,0,0,1,30.541,32.3c.274-.192.019-.644-.265-.454" transform="translate(-8.486 -16.173)" fill="#6d1e16"/>
            <path id="Trazado_1528" data-name="Trazado 1528" d="M36.675,56.346a17.89,17.89,0,0,0-1.487,5.639,16.953,16.953,0,0,0-.016,3.025,7.282,7.282,0,0,0,.6,2.753A.124.124,0,0,0,36,67.7a25.992,25.992,0,0,0-.272-2.791,21,21,0,0,1-.017-2.824,19.938,19.938,0,0,1,1.2-5.642c.049-.134-.173-.229-.232-.1" transform="translate(-17.858 -28.626)" fill="#ad6f32"/>
            <path id="Trazado_1529" data-name="Trazado 1529" d="M38.918,63.213a23.053,23.053,0,0,0-.559,3.671A12.743,12.743,0,0,0,38.5,70.6a.075.075,0,0,0,.146-.02c.018-1.208-.117-2.411-.075-3.622a22.872,22.872,0,0,1,.442-3.715c.012-.06-.079-.086-.093-.026" transform="translate(-19.475 -32.133)" fill="#ad6f32"/>
            <path id="Trazado_1530" data-name="Trazado 1530" d="M43.416,26.9a3.374,3.374,0,0,1,1.911-3.748l-.5-.387c-.138.71-.783,1.349-.485,2.117a1,1,0,0,0,1.412.474c.778-.321,1.476-.883,2.24-1.253a17.92,17.92,0,0,1,2.55-.987,20.573,20.573,0,0,1,5.513-.919,11.4,11.4,0,0,1,5.654,1.3c.166.084.378-.146.212-.276a7.686,7.686,0,0,0-4.454-1.695,19.1,19.1,0,0,0-4.792.344A20.591,20.591,0,0,0,48,23.324,15.218,15.218,0,0,0,45.97,24.47c-.171.112-.461.367-.663.35l-.4-.354a.863.863,0,0,1,.1-.4,8.076,8.076,0,0,0,.478-1.126c.05-.228-.161-.525-.421-.421a3.476,3.476,0,0,0-2.016,4.529c.1.224.4.052.369-.155" transform="translate(-21.754 -10.93)" fill="#6d1e16"/>
            <path id="Trazado_1531" data-name="Trazado 1531" d="M102.61,73.2c-.1.813-.2,1.625-.287,2.44-.041.407-.087.813-.123,1.22-.016.187-.025.375-.034.563a1.529,1.529,0,0,0,.018.615.2.2,0,0,0,.352.046,1.4,1.4,0,0,0,.123-.567c.023-.187.048-.375.066-.563.04-.421.061-.845.091-1.267.058-.829.1-1.657.136-2.487.01-.225-.315-.212-.342,0" transform="translate(-51.951 -37.147)" fill="#ad6f32"/>
            <path id="Trazado_1532" data-name="Trazado 1532" d="M110.266,113.3h-.2l.219.091c-.272-.322-.818-.044-1.14.052-.351.1-.7.205-1.06.291-.339.082-.674.173-1.013.252-.237.055-.751.184-.664.523s.645.308.9.292a6.566,6.566,0,0,0,1.1-.15,9.1,9.1,0,0,0,1.056-.318c.326-.12.939-.277.913-.724l-.091.219.14-.138a.231.231,0,0,0-.161-.389" transform="translate(-54.116 -57.596)" fill="#6d1e16"/>
            <path id="Trazado_1533" data-name="Trazado 1533" d="M105.88,83.468a8.911,8.911,0,0,0,.436,2.194,7.751,7.751,0,0,0,.438,1.023,3.513,3.513,0,0,0,.286.472,2.016,2.016,0,0,0,.414.4c.109.086.294.011.249-.145a4.9,4.9,0,0,0-.379-.941,9.689,9.689,0,0,1-.433-.968,8.389,8.389,0,0,1-.52-2.035c-.037-.306-.514-.321-.491,0" transform="translate(-53.852 -42.333)" fill="#ad6f32"/>
            <path id="Trazado_1534" data-name="Trazado 1534" d="M109.138,87.063q.172.515.392,1.012.107.243.226.481a1.391,1.391,0,0,0,.135.241c.057.072.114.143.172.213a.137.137,0,0,0,.227-.132c-.032-.086-.061-.173-.094-.259a2.037,2.037,0,0,0-.12-.229q-.123-.225-.235-.456-.227-.466-.407-.952c-.068-.182-.359-.108-.3.082" transform="translate(-55.504 -44.187)" fill="#ad6f32"/>
            <path id="Trazado_1535" data-name="Trazado 1535" d="M101.721,113.6a14.629,14.629,0,0,1-2.511,1.775c-.447.242-.91.454-1.376.659q-.314.137-.635.261a1.62,1.62,0,0,0-.559.325.29.29,0,0,0,.141.493,1.456,1.456,0,0,0,.732-.054c.246-.075.485-.167.723-.261a10.984,10.984,0,0,0,1.461-.72,6.5,6.5,0,0,0,2.476-2.155c.154-.268-.209-.529-.451-.323" transform="translate(-49.107 -57.741)" fill="#6d1e16"/>
            <path id="Trazado_1536" data-name="Trazado 1536" d="M59.992,123.833a15.123,15.123,0,0,0,6.491,1.07c1.456-.085,3.405-.238,4.6-1.187a.159.159,0,0,0-.112-.27,18.449,18.449,0,0,0-1.939.449,14.785,14.785,0,0,1-2.637.383,15.769,15.769,0,0,1-6.278-.9c-.289-.106-.4.345-.126.457" transform="translate(-30.432 -62.743)" fill="#6d1e16"/>
            <path id="Trazado_1537" data-name="Trazado 1537" d="M58.633,126.627c.4-.194.8-.372,1.207-.542.206-.086.416-.16.622-.247a2.089,2.089,0,0,0,.671-.327.27.27,0,0,0-.118-.447.868.868,0,0,0-.412.027q-.172.048-.342.1a5.781,5.781,0,0,0-.68.278,5.275,5.275,0,0,0-.614.314q-.3.192-.591.4a.255.255,0,0,0,.257.439" transform="translate(-29.632 -63.602)" fill="#6d1e16"/>
            <path id="Trazado_1538" data-name="Trazado 1538" d="M77.592,125.351a5.773,5.773,0,0,1,.959.3c.139.057.277.115.416.171a1.952,1.952,0,0,0,.576.137.265.265,0,0,0,.254-.193.269.269,0,0,0-.121-.3,5.227,5.227,0,0,0-.961-.411,5.782,5.782,0,0,0-.967-.27.294.294,0,0,0-.156.567" transform="translate(-39.356 -63.464)" fill="#6d1e16"/>
            <path id="Trazado_1539" data-name="Trazado 1539" d="M92.813,48.047a16.42,16.42,0,0,1,1.422,15.518c-.021.051.062.085.088.037a14.7,14.7,0,0,0-1.457-15.586c-.024-.03-.076,0-.053.031" transform="translate(-47.203 -24.415)" fill="#ad6f32"/>
            <path id="Trazado_1540" data-name="Trazado 1540" d="M40.4,131.535a10.28,10.28,0,0,0,1.3,5,5.644,5.644,0,0,0,3.109,3.021,4.071,4.071,0,0,0,3.858-.914,4.536,4.536,0,0,0,1.447-3.97,5.752,5.752,0,0,0-.884-2.467c-.523-.8-1.272-1.424-1.77-2.242-.281-.462-1.009-.04-.727.425.733,1.2,1.9,2.04,2.335,3.426a4.025,4.025,0,0,1-.571,3.754,3.33,3.33,0,0,1-3.2,1.237,4.78,4.78,0,0,1-2.826-2.479,13.5,13.5,0,0,1-1.037-2.326c-.287-.822-.451-1.678-.733-2.5a.154.154,0,0,0-.3.041" transform="translate(-20.54 -65.997)" fill="#6d1e16"/>
            <path id="Trazado_1541" data-name="Trazado 1541" d="M84.779,132.333a4.771,4.771,0,0,0-1.027,1.963,8.02,8.02,0,0,0-.413,2.345,4.481,4.481,0,0,0,1.655,3.719,3.788,3.788,0,0,0,5.969-2.153,14.455,14.455,0,0,0,.5-2.864,30.353,30.353,0,0,0,.246-3.436.136.136,0,0,0-.267-.036c-.44,1.633-.553,3.317-.9,4.968A4.27,4.27,0,0,1,88.606,140a3.053,3.053,0,0,1-2.812-.088,3.483,3.483,0,0,1-1.636-2.929,7.2,7.2,0,0,1,.218-2.272c.191-.745.567-1.426.763-2.164a.217.217,0,0,0-.359-.209" transform="translate(-42.386 -67.023)" fill="#6d1e16"/>
            <path id="Trazado_1542" data-name="Trazado 1542" d="M63,125.2a5.114,5.114,0,0,0,4.594,2.731,4.016,4.016,0,0,0,3.586-3.07.16.16,0,0,0-.309-.085,3.914,3.914,0,0,1-3.358,2.771,4.93,4.93,0,0,1-4.283-2.482c-.093-.143-.321-.013-.231.135" transform="translate(-32.03 -63.404)" fill="#6d1e16"/>
            <path id="Trazado_1543" data-name="Trazado 1543" d="M34.822,81.758a39.123,39.123,0,0,0-.322,5.725c.021.936.062,1.873.153,2.8a7.4,7.4,0,0,0,.552,2.569.2.2,0,0,0,.361-.047,10.271,10.271,0,0,0-.046-2.63c-.076-.935-.152-1.869-.195-2.805-.084-1.868-.125-3.747-.074-5.617.008-.284-.4-.266-.429,0" transform="translate(-17.543 -41.478)" fill="#6d1e16"/>
            <path id="Trazado_1544" data-name="Trazado 1544" d="M29.474,91.265a3.686,3.686,0,0,0-3.54,2.356,3.772,3.772,0,0,0,1.075,4.414,3.938,3.938,0,0,0,1.232.7,1.669,1.669,0,0,0,1.312,0,.155.155,0,0,0,.031-.241,5.761,5.761,0,0,0-1.147-.487,3.689,3.689,0,0,1-1.114-.791,3.077,3.077,0,0,1-.86-2.253,3.442,3.442,0,0,1,3.011-3.181.259.259,0,0,0,0-.517" transform="translate(-13.034 -46.415)" fill="#6d1e16"/>
            <path id="Trazado_1545" data-name="Trazado 1545" d="M35.786,83.568a.714.714,0,0,1-.2.225c-.07.05-.1.079-.155.113-.025.016-.051.031-.078.045-.008,0-.084.038-.039.02a1.4,1.4,0,0,1-.173.051c-.082.021.048,0-.036.005-.03,0-.059,0-.089,0s-.06,0-.089-.005c.069.008-.016-.005-.03-.009s-.106-.033-.073-.02-.057-.029-.067-.035a.343.343,0,0,0-.466.466,10.3,10.3,0,0,0,.8,1.255,3.109,3.109,0,0,0,.47.58.62.62,0,0,0,.431.176.436.436,0,0,0,.377-.225.288.288,0,0,0-.044-.34,2.492,2.492,0,0,1-.23-.263,2.6,2.6,0,0,1-.177-.33c-.1-.213-.209-.428-.3-.648l-.523.3a2.6,2.6,0,0,1,.32.37,3.463,3.463,0,0,0,.338.454.288.288,0,0,0,.477-.277,1.934,1.934,0,0,0-.692-.989.314.314,0,0,0-.491.379,4.1,4.1,0,0,0,.384.69c.077.109.164.209.239.318s.138.223.212.331l.242-.422c.034,0,.1.054.049.007-.027-.025-.054-.047-.08-.072s-.032-.037-.007-.007l-.026-.036c-.045-.064-.1-.123-.146-.184-.117-.147-.208-.266-.324-.423q-.361-.492-.711-.993l-.466.466a1.289,1.289,0,0,0,1.131-.037.964.964,0,0,0,.549-.861.163.163,0,0,0-.3-.082" transform="translate(-17.417 -42.464)" fill="#6d1e16"/>
            <path id="Trazado_1546" data-name="Trazado 1546" d="M36.331,68.239l.15-.085-.262.006c.342.12.57-.11.812-.319a10.176,10.176,0,0,1,.924-.71,5.684,5.684,0,0,1,2.009-.819,9.958,9.958,0,0,1,2.343-.217c.433.009.866.027,1.3.039a2.148,2.148,0,0,0,.643-.013,2.532,2.532,0,0,1,.474-.146c.311-.057.486-.523.174-.71-.18-.108-.335-.27-.514-.368a2.537,2.537,0,0,0-.615-.176,7.573,7.573,0,0,0-1.282-.194,8.961,8.961,0,0,0-2.684.21c-1.471.364-3.278,1.306-3.825,2.818a.478.478,0,0,0,.074.472l.026.029L36,67.8c-.005.084-.01.167-.015.25a.214.214,0,0,0,.342.187" transform="translate(-18.284 -32.808)" fill="#6d1e16"/>
            <path id="Trazado_1547" data-name="Trazado 1547" d="M89.717,68.847c.671.062,1.332.088,2,.123a12.382,12.382,0,0,1,2.01.228,5.115,5.115,0,0,1,1.538.611,4.547,4.547,0,0,1,.83.592c.119.115.229.24.35.353a5.587,5.587,0,0,0,.485.3.5.5,0,0,0,.787-.457.875.875,0,0,1-.025-.248l-.04.315a1.362,1.362,0,0,0-.366-1.27,5.365,5.365,0,0,0-.808-.861,5.272,5.272,0,0,0-2.252-.965,8.389,8.389,0,0,0-2.338-.143,9.486,9.486,0,0,0-2.308.468.5.5,0,0,0,.133.957" transform="translate(-45.411 -34.279)" fill="#6d1e16"/>
            <path id="Trazado_1548" data-name="Trazado 1548" d="M16.838,54.212c-2.71,3.594-5.356,7.631-5.733,12.241a8.575,8.575,0,0,0,1.386,5.85,5.086,5.086,0,0,0,4.723,2.117c.136-.02.1-.251-.033-.241a5.284,5.284,0,0,1-4.9-2.812,9.584,9.584,0,0,1-.811-6.193c.658-4.082,3.113-7.609,5.447-10.914.036-.051-.047-.1-.083-.049" transform="translate(-5.628 -27.562)" fill="#ad6f32"/>
            <path id="Trazado_1549" data-name="Trazado 1549" d="M29.741,106.119a6.977,6.977,0,0,1-3.156,3.825,2.746,2.746,0,0,1-2.559.268,1.432,1.432,0,0,1-.644-.8,1.18,1.18,0,0,1,.128-.988c.061-.122-.072-.3-.2-.2a1.4,1.4,0,0,0-.292,1.652,1.93,1.93,0,0,0,1.648,1.175c1.617.179,3.34-1.063,4.233-2.327a5.716,5.716,0,0,0,1.022-2.553.092.092,0,0,0-.177-.049" transform="translate(-11.635 -53.94)" fill="#6d1e16"/>
            <path id="Trazado_1550" data-name="Trazado 1550" d="M29.3,108.888c-1.5,1.525-3.81,3.065-5.97,1.842a2.029,2.029,0,0,1-1.089-1.388,2.991,2.991,0,0,1,.3-1.683,4.133,4.133,0,0,1,2.321-2.074.145.145,0,0,0-.077-.279,3.97,3.97,0,0,0-3.077,4.314,2.9,2.9,0,0,0,2.157,1.963,4.43,4.43,0,0,0,2.961-.263,5.614,5.614,0,0,0,2.56-2.362.057.057,0,0,0-.089-.069" transform="translate(-11.012 -53.558)" fill="#6d1e16"/>
            <path id="Trazado_1551" data-name="Trazado 1551" d="M26.062,105.332a3.105,3.105,0,0,0,.292.654l.123-.3a2.542,2.542,0,0,0-1.111.766,4.218,4.218,0,0,0-.749,1.211c-.241.57-.881,2.187.183,2.307.057.006.077-.081.028-.106-.434-.226-.276-.839-.168-1.208a5.573,5.573,0,0,1,.427-1.063,4.066,4.066,0,0,1,.627-.885,3.777,3.777,0,0,1,.921-.645.208.208,0,0,0,0-.356,1.724,1.724,0,0,1-.478-.412c-.033-.043-.118-.021-.1.041" transform="translate(-12.311 -53.541)" fill="#6d1e16"/>
            <path id="Trazado_1552" data-name="Trazado 1552" d="M109.536,93.626a7.772,7.772,0,0,0,2.495,8.521c1.482,1.2,3.645,1.5,4.864,3.016a2.305,2.305,0,0,1,.109,2.864,7.654,7.654,0,0,1-2.519,1.993c-.044.029-.017.105.037.088,1.549-.48,3.433-1.462,3.593-3.279.171-1.942-1.658-3.128-3.184-3.844a8.068,8.068,0,0,1-5.166-9.3.119.119,0,0,0-.229-.063" transform="translate(-55.493 -47.578)" fill="#6d1e16"/>
            <path id="Trazado_1553" data-name="Trazado 1553" d="M106.957,89.64a12.676,12.676,0,0,0-1.19,3.587,9.47,9.47,0,0,0-.149,3.1,6.74,6.74,0,0,0,3.376,4.84c1.81,1.126,3.889,1.718,5.7,2.833.649.4,3.078,2,1.888,2.879a6.686,6.686,0,0,1-3.75,1.254l.2.154c-.024-.161-.048-.322-.072-.484-.043-.288-.521-.173-.448.124l.115.472a.215.215,0,0,0,.258.146,11.625,11.625,0,0,0,3.53-.988c.777-.378,1.386-.868.992-1.794a5.481,5.481,0,0,0-2.126-2.116,20.61,20.61,0,0,0-3.072-1.56c-2.067-.908-4.4-1.922-5.46-4.06a7.334,7.334,0,0,1-.594-3.939c.146-1.507.759-2.891.978-4.371.016-.1-.124-.186-.184-.078" transform="translate(-53.684 -45.566)" fill="#ad6f32"/>
            <path id="Trazado_1554" data-name="Trazado 1554" d="M126.233,122.132a5.233,5.233,0,0,1,.435.407,2.09,2.09,0,0,0,.424.414.053.053,0,0,0,.077-.059.7.7,0,0,0-.153-.266c-.067-.075-.136-.148-.207-.219a5.143,5.143,0,0,0-.452-.4.09.09,0,0,0-.124,0,.088.088,0,0,0,0,.124" transform="translate(-64.191 -62.042)" fill="#6d1e16"/>
            <path id="Trazado_1555" data-name="Trazado 1555" d="M126.05,123.119l.208.277.049.065a.526.526,0,0,0,.071.073l.064.058a.323.323,0,0,0,.077.06.062.062,0,0,0,.09-.069,1.755,1.755,0,0,0-.142-.24c-.019-.022-.039-.043-.059-.064l-.235-.256a.079.079,0,0,0-.124.1" transform="translate(-64.105 -62.56)" fill="#6d1e16"/>
            <path id="Trazado_1556" data-name="Trazado 1556" d="M129.494,63.511c.186,1.6.376,3.211.508,4.814a19.181,19.181,0,0,1-.1,4.767,12.3,12.3,0,0,1-1.171,3.64,16.162,16.162,0,0,1-2.415,3.162.246.246,0,0,0,.3.385c2.429-1.109,3.7-4.276,4.1-6.742a18.111,18.111,0,0,0,.079-4.809,33.881,33.881,0,0,0-1.106-5.245c-.029-.106-.211-.089-.2.027" transform="translate(-64.214 -32.253)" fill="#6d1e16"/>
            <path id="Trazado_1557" data-name="Trazado 1557" d="M28.208,124.9a6.3,6.3,0,0,0,.817-2.609,3.726,3.726,0,0,0,2.288,2.135,2.158,2.158,0,0,0-1.112,1.527,5.7,5.7,0,0,0-1.634-.677" transform="translate(-14.347 -62.197)" fill="#ff0"/>
            <path id="Trazado_1558" data-name="Trazado 1558" d="M28.179,124.695a5.8,5.8,0,0,0,.949-2.706l-.587.079a4,4,0,0,0,2.493,2.357q-.038-.285-.075-.57a2.591,2.591,0,0,0-.788.748,3.267,3.267,0,0,0-.422.977l.442-.116a2.989,2.989,0,0,0-.882-.527,1.535,1.535,0,0,0-1-.2.248.248,0,0,0-.109.41,2.389,2.389,0,0,0,.869.393c.294.112.573.262.869.365a.267.267,0,0,0,.335-.255,1.682,1.682,0,0,1,1.005-1.257.315.315,0,0,0-.074-.57,3.515,3.515,0,0,1-2.083-1.914.3.3,0,0,0-.586.08,7.274,7.274,0,0,1-.685,2.511.193.193,0,0,0,.333.195" transform="translate(-14.152 -61.898)" fill="#6d1e16"/>
            <path id="Trazado_1559" data-name="Trazado 1559" d="M48.241,148.909c-.282.208-.575.416-.835.651s-.51.509-.752.771-.485.537-.705.824a5.068,5.068,0,0,0-.308.423c-.048.077-.1.155-.14.236a1.7,1.7,0,0,0-.079.275c-.054.176.167.368.328.252a2.363,2.363,0,0,0,.236-.153c.059-.055.112-.121.168-.18.113-.12.213-.252.318-.379.225-.269.441-.544.669-.811s.454-.509.685-.759.452-.538.685-.8c.159-.178-.055-.511-.271-.351" transform="translate(-23.098 -75.716)" fill="#6d1e16"/>
            <path id="Trazado_1560" data-name="Trazado 1560" d="M91.36,150.119a5.357,5.357,0,0,0,.778,1.3c.3.426.6.847.923,1.257.171.22.387.526.707.452a.369.369,0,0,0,.264-.358.894.894,0,0,0-.19-.454c-.293-.429-.622-.833-.947-1.239l-.513-.639a3.086,3.086,0,0,0-.635-.612.266.266,0,0,0-.386.3" transform="translate(-46.461 -76.181)" fill="#6d1e16"/>
            <path id="Trazado_1561" data-name="Trazado 1561" d="M83,80.949a5.575,5.575,0,0,1,6.575-2.342,5.26,5.26,0,0,1,2.65,2.562,5.754,5.754,0,0,1,.532,1.776,6.76,6.76,0,0,0,.209,1.963.534.534,0,0,0,.827.107c.583-.472.586-1.6.529-2.282a6.784,6.784,0,0,0-.681-2.393,6.561,6.561,0,0,0-3.535-3.266,6.483,6.483,0,0,0-8.015,3.343c-.273.6.56,1.129.909.531" transform="translate(-41.725 -39.004)" fill="#6d1e16"/>
            <g id="Grupo_11007" data-name="Grupo 11007" transform="translate(18.47 38.041)" opacity="0.2" style="mix-blend-mode: multiply;isolation: isolate">
              <g id="Grupo_11006" data-name="Grupo 11006">
                <g id="Grupo_11005" data-name="Grupo 11005" clip-path="url(#clip-path-3)">
                  <path id="Trazado_1562" data-name="Trazado 1562" d="M37.844,82.075a4.73,4.73,0,0,0,.505,3.367A7.13,7.13,0,0,1,40.465,81a6.676,6.676,0,0,1,4.54-1.861c.362,0,.724.028,1.085.057a4.659,4.659,0,0,1,2.7.8,5.7,5.7,0,0,0-7.121-2.074,7.649,7.649,0,0,0-3.031,2.68,5.35,5.35,0,0,0-1.051,2.532" transform="translate(-37.588 -77.416)" fill="#6d1e16"/>
                </g>
              </g>
            </g>
            <g id="Grupo_11010" data-name="Grupo 11010" transform="translate(40.756 38.402)" opacity="0.2" style="mix-blend-mode: multiply;isolation: isolate">
              <g id="Grupo_11009" data-name="Grupo 11009">
                <g id="Grupo_11008" data-name="Grupo 11008" clip-path="url(#clip-path-4)">
                  <path id="Trazado_1563" data-name="Trazado 1563" d="M82.941,82.8a4.711,4.711,0,0,1,3.586-1.659,5.808,5.808,0,0,1,1.147.009,5.134,5.134,0,0,1,3.261,1.968A11.422,11.422,0,0,1,92.7,86.573a5.315,5.315,0,0,0,.721-4.449,4.734,4.734,0,0,0-1.051-2.294,4.417,4.417,0,0,0-1.105-.821,5.82,5.82,0,0,0-5.842-.129A6.4,6.4,0,0,0,83.607,80.7a2.8,2.8,0,0,0-.329.77,6.372,6.372,0,0,1-.337,1.324" transform="translate(-82.941 -78.151)" fill="#6d1e16"/>
                </g>
              </g>
            </g>
            <path id="Trazado_1564" data-name="Trazado 1564" d="M32.482,105.717a.738.738,0,0,0,0-1.474.738.738,0,0,0,0,1.474" transform="translate(-16.159 -53.019)" fill="#ffece1"/>
            <path id="Trazado_1565" data-name="Trazado 1565" d="M37.665,107.537c-1.078-.851-1.274-2.509-1.395-3.784a17.938,17.938,0,0,0-.67-4.319c-.312-.889-1.737-.507-1.421.392a20.5,20.5,0,0,1,.675,4.473c.176,1.483.525,3.3,1.769,4.28a.76.76,0,0,0,1.042,0,.742.742,0,0,0,0-1.042" transform="translate(-17.361 -50.317)" fill="#6d1e16"/>
            <path id="Trazado_1566" data-name="Trazado 1566" d="M31.02,105.859a7.389,7.389,0,0,0,2.35.354.737.737,0,0,0,0-1.474,6.955,6.955,0,0,1-.97-.057l.2.026a6.777,6.777,0,0,1-1.183-.27.744.744,0,0,0-.907.515.754.754,0,0,0,.515.907" transform="translate(-15.505 -53.104)" fill="#6d1e16"/>
            <path id="Trazado_1567" data-name="Trazado 1567" d="M32.116,91.777h1.12a.76.76,0,0,0,.521-.216.738.738,0,0,0,0-1.043.768.768,0,0,0-.521-.216h-1.12a.76.76,0,0,0-.521.216.738.738,0,0,0,0,1.043.768.768,0,0,0,.521.216" transform="translate(-15.959 -45.929)" fill="#6d1e16"/>
            <path id="Trazado_1568" data-name="Trazado 1568" d="M106.078,113.257a15.4,15.4,0,0,0,1.606-1.948.737.737,0,0,0-.832-1.083.829.829,0,0,0-.441.339q-.2.284-.409.558l.115-.149a14.34,14.34,0,0,1-1.081,1.242.763.763,0,0,0-.216.521.737.737,0,0,0,1.258.521" transform="translate(-53.313 -56.048)" fill="#6d1e16"/>
            <path id="Trazado_1569" data-name="Trazado 1569" d="M113.274,102.18a3.382,3.382,0,0,0,1.972-.7c.613-.426,1.2-.892,1.787-1.354q1.739-1.374,3.359-2.888c.7-.649-.349-1.689-1.042-1.042q-1.486,1.385-3.07,2.657-.743.6-1.509,1.161a2.582,2.582,0,0,1-1.5.691.738.738,0,0,0,0,1.474" transform="translate(-57.251 -48.823)" fill="#6d1e16"/>
          </g>
        </g>
      </g>
    </g>
    <g id="Grupo_11016" data-name="Grupo 11016" transform="translate(144.755 29.311)" style="mix-blend-mode: normal;isolation: isolate">
      <g id="Grupo_11015" data-name="Grupo 11015" transform="translate(0 0)" clip-path="url(#clip-path-5)">
        <path id="Trazado_1570" data-name="Trazado 1570" d="M26.156,21.509a21.8,21.8,0,0,1,1.771-1.666q1.094-.938,2.265-1.875T32.509,16.2a21.094,21.094,0,0,1,1.979-1.3,5.846,5.846,0,0,1,.625-.364l.469-.157a5.868,5.868,0,0,0,.625-.364,3.39,3.39,0,0,1,1.406-.261,2.181,2.181,0,0,1,1.224.443,1.842,1.842,0,0,1,.651,1.068,1.009,1.009,0,0,1,.052.312,2.006,2.006,0,0,1-.286,1.015,1.807,1.807,0,0,1-.964.755,13.083,13.083,0,0,0-2.525,1.3q-1.484.938-3.021,2.11a36.133,36.133,0,0,0-2.864,2.422,17.316,17.316,0,0,0-2.057,2.239,2.7,2.7,0,0,0-.573,1.458c0,.035.008.166.026.391a3.093,3.093,0,0,0,.6,1.172,4.183,4.183,0,0,0,1.015.99,5.968,5.968,0,0,0,1.276.677q.625.312,1.823.833t2.5,1.042q1.3.522,2.5.99t1.874.729a5,5,0,0,0,.547.182,2.188,2.188,0,0,1,.547.234,1.7,1.7,0,0,1,.781.781,2.027,2.027,0,0,1,.209.782,1.4,1.4,0,0,1-.1.52,1.668,1.668,0,0,1-1.771,1.354h-.209c-.208-.034-.416-.078-.625-.13s-.417-.112-.625-.182Q36.519,36.821,34.9,36.2t-3.333-1.354q-1.719-.729-3.307-1.536a18.557,18.557,0,0,1-2.578-1.536,12.932,12.932,0,0,0-.13,1.354q-.078,1.147-.156,2.448t-.13,2.422q-.053,1.12-.052,1.328a3.068,3.068,0,0,1-.6,1.693,1.582,1.582,0,0,1-1.276.6h-.1a1.7,1.7,0,0,1-1.354-.7,2.927,2.927,0,0,1-.469-1.744q.051-1.094.131-3.125t.182-4.219q.1-2.187.182-4.218t.13-3.125q.1-4.843.312-9.635t.417-9.634q.051-.782.1-1.328c.034-.365.052-.652.052-.86a8.168,8.168,0,0,0-.052-.885V1.979A1.973,1.973,0,0,1,23.343.651,1.919,1.919,0,0,1,24.593,0H24.8A1.821,1.821,0,0,1,26,.495a1.888,1.888,0,0,1,.625,1.38q.051.73.052,1.458,0,.365-.026,1.12T26.52,6.3q-.156,3.594-.312,7.213T25.9,20.728v.339a.708.708,0,0,0,.261.442" transform="translate(-9.96 0)" fill="#c0a7ce"/>
        <path id="Trazado_1571" data-name="Trazado 1571" d="M69.746,56.019a5.847,5.847,0,0,0-.364.625l-.261.416a5.852,5.852,0,0,1-.364.625,15.824,15.824,0,0,1-1.8,2.265,3.534,3.534,0,0,1-2.682,1.067A3.645,3.645,0,0,1,61,58.883a6.8,6.8,0,0,1-.7-2.135,13.421,13.421,0,0,1-.13-1.719q0-.469.052-.99a17.725,17.725,0,0,1,.6-2.943A17.522,17.522,0,0,1,61.987,48.1a14,14,0,0,1,1.745-2.682,9.466,9.466,0,0,1,2.265-2,4.393,4.393,0,0,1,2.239-.677,3.766,3.766,0,0,1,2.656,1.146,1.426,1.426,0,0,0,.391.312.63.63,0,0,0,.234.052,1.282,1.282,0,0,0,.469-.1,2.794,2.794,0,0,1,.885-.156,1.577,1.577,0,0,1,1.328.572,2.081,2.081,0,0,1,.442,1.3,2.449,2.449,0,0,1-.052.469q-.156,1.094-.312,2.187l-.1.625q-.156,1.094-.312,2.187a19.075,19.075,0,0,0-.209,2.812q0,.575.078,1.849a13.447,13.447,0,0,0,.7,3.2l.156.781v.313a1.677,1.677,0,0,1-1.145,1.666,1.981,1.981,0,0,1-.625.1,2.674,2.674,0,0,1-.7-.13,1.74,1.74,0,0,1-.859-.7,2.826,2.826,0,0,1-.391-.755q-.13-.39-.234-.807-.262-.886-.443-1.8t-.443-1.849m-5.364.989a.713.713,0,0,0,.417-.234,1.968,1.968,0,0,0,.261-.391,21.648,21.648,0,0,0,2.057-3.515q.859-1.848,1.744-3.672a1.189,1.189,0,0,0,.157-.625,1.407,1.407,0,0,0-.1-.521q-.105-.363-.208-.781a.672.672,0,0,0-.521-.521.875.875,0,0,0-.261-.052.585.585,0,0,0-.469.287,4.618,4.618,0,0,1-.469.547,11.2,11.2,0,0,0-2.239,3.619,12.577,12.577,0,0,0-.782,4.14v.417q0,.209.026.573a1.168,1.168,0,0,0,.391.729" transform="translate(-27.98 -19.876)" fill="#c0a7ce"/>
        <path id="Trazado_1572" data-name="Trazado 1572" d="M102.615,45.239q.364-.313.677-.625a5.318,5.318,0,0,1,.677-.573,4.155,4.155,0,0,1,2.5-.938,2.666,2.666,0,0,1,2.135.912A5.738,5.738,0,0,1,109.75,46.2a13.39,13.39,0,0,1,.469,2.656q.1,1.38.1,2.317a91.582,91.582,0,0,1-.468,9.218v.339a1.083,1.083,0,0,1-.052.339,2.35,2.35,0,0,1-.833,1.2,1.724,1.724,0,0,1-1.3.312,1.773,1.773,0,0,1-1.172-.651A2,2,0,0,1,106.1,60.5q.1-1.562.234-3.125t.131-3.125q.051-1.614.051-3.228a20.29,20.29,0,0,0-.26-3.229,2.929,2.929,0,0,0-.156-.364.537.537,0,0,0-.495.209q-.131.208-.234.416a7.5,7.5,0,0,0-.833,1.484q-.312.756-.573,1.589a2.083,2.083,0,0,1-2.083,1.614q-1.511-.1-1.875-1.875-.156-.676-.286-1.328t-.287-1.328q-.1-.416-.182-.781a1.253,1.253,0,0,0-.443-.677,2.814,2.814,0,0,0-.807.833,5.752,5.752,0,0,0-.495,1.042,22.664,22.664,0,0,0-1.276,5.416,14.056,14.056,0,0,0,.547,5.521,2.328,2.328,0,0,1,0,1.536,1.576,1.576,0,0,1-.938.912,2.037,2.037,0,0,1-1.432,0,2.093,2.093,0,0,1-1.12-1.042,6.873,6.873,0,0,1-.573-1.849q-.156-.963-.261-1.953a26.972,26.972,0,0,1,.182-4.609A21.034,21.034,0,0,1,93.709,48.1a16.02,16.02,0,0,1,.782-1.823,8.22,8.22,0,0,1,1.146-1.719,6.674,6.674,0,0,1,1.51-1.3,3.471,3.471,0,0,1,1.875-.521,3.368,3.368,0,0,1,2.812,1.458,2.641,2.641,0,0,1,.339.547,1.185,1.185,0,0,0,.442.495" transform="translate(-42.986 -19.876)" fill="#c0a7ce"/>
        <path id="Trazado_1573" data-name="Trazado 1573" d="M157.73,30.328q-1.459.052-2.76.182a13.867,13.867,0,0,1-2.552.026h-.781a6.3,6.3,0,0,1-.781-.052,1.906,1.906,0,0,0-.885.052c-.1.07-.209.347-.312.833q-.262,1.249-.729,3.411t-1.172,4.635q-.7,2.474-1.666,5a30.073,30.073,0,0,1-2.161,4.557,13.864,13.864,0,0,1-2.657,3.334,4.741,4.741,0,0,1-3.229,1.3,3.433,3.433,0,0,1-2.213-.729,5.962,5.962,0,0,1-1.511-1.823,9.814,9.814,0,0,1-.911-2.344,16.036,16.036,0,0,1-.417-2.291,37.025,37.025,0,0,1,.573-9.739c.069-.209.131-.417.182-.625a4.325,4.325,0,0,1,.182-.573,1.863,1.863,0,0,1,.937-1.015,1.619,1.619,0,0,1,1.3-.026,1.842,1.842,0,0,1,1.093.781,1.783,1.783,0,0,1,.208,1.354,44.355,44.355,0,0,0-.781,5,31.242,31.242,0,0,0-.052,3.125,15.163,15.163,0,0,0,.417,3.073q.1.573.261,1.146a.975.975,0,0,0,.729.729.9.9,0,0,0,1.016-.364q.391-.52.755-.937a17.231,17.231,0,0,0,1.3-2.057,18.618,18.618,0,0,0,.989-2.161,50.158,50.158,0,0,0,2.214-6.615q.859-3.332,1.641-6.77.156-.676.052-.833a2.13,2.13,0,0,0-.833-.417q-.365-.156-.729-.286a3.072,3.072,0,0,1-.677-.339,2.018,2.018,0,0,1-.833-1.016,1.662,1.662,0,0,1,.052-1.224,1.837,1.837,0,0,1,.833-.937,2.045,2.045,0,0,1,1.3-.209,31.615,31.615,0,0,0,3.646.964,19.418,19.418,0,0,0,3.749.338q1.041,0,2.005-.052t2-.156q.624-.051,1.276-.13t1.276-.131a2.729,2.729,0,0,1,2.474.782,2.685,2.685,0,0,1,.391,2.552q-.262.887-.573,1.719t-.677,1.666q-1.354,3.438-2.6,6.822a57.736,57.736,0,0,0-2.083,6.979,31.717,31.717,0,0,0-.755,4.193,27.078,27.078,0,0,0-.13,4.3,16.614,16.614,0,0,0,.182,1.693,8.508,8.508,0,0,0,.442,1.64,5.844,5.844,0,0,0,2.5,3.047,5.629,5.629,0,0,0,3.906.651,8.849,8.849,0,0,0,1.744-.391q.859-.287,1.745-.651c.138-.07.269-.13.391-.182s.269-.113.442-.182a1.723,1.723,0,0,1,2.135.782,1.686,1.686,0,0,1-.261,2.291,2.246,2.246,0,0,1-.521.417,20.324,20.324,0,0,1-3.645,1.406,10.3,10.3,0,0,1-3.854.312,8.982,8.982,0,0,1-5.6-2.37,10.25,10.25,0,0,1-2.995-5.546,19.388,19.388,0,0,1-.417-4.01,30.578,30.578,0,0,1,.261-4.01,44.909,44.909,0,0,1,.937-5q.625-2.551,1.458-5.1t1.8-5.026q.963-2.474,1.953-4.765m-21.717-.677a1.75,1.75,0,0,1,1.276.547,1.959,1.959,0,0,1,.6,1.276,1.808,1.808,0,0,1-.547,1.328,1.869,1.869,0,0,1-1.38.547,1.9,1.9,0,0,1-1.25-.573,1.763,1.763,0,0,1-.521-1.3,2.009,2.009,0,0,1,.573-1.276,1.665,1.665,0,0,1,1.25-.547" transform="translate(-61.802 -11.84)" fill="#c0a7ce"/>
        <path id="Trazado_1574" data-name="Trazado 1574" d="M199.913,54.846a6.135,6.135,0,0,0-.386.662l-.275.441a6.288,6.288,0,0,1-.386.662,16.718,16.718,0,0,1-1.9,2.4,3.74,3.74,0,0,1-2.838,1.13,3.859,3.859,0,0,1-3.472-2.26,7.163,7.163,0,0,1-.744-2.26,14.162,14.162,0,0,1-.138-1.819,10.34,10.34,0,0,1,.056-1.047,18.74,18.74,0,0,1,.633-3.114,18.553,18.553,0,0,1,1.24-3.169,14.811,14.811,0,0,1,1.847-2.838,10.01,10.01,0,0,1,2.4-2.122,4.651,4.651,0,0,1,2.37-.717A3.987,3.987,0,0,1,201.126,42a1.523,1.523,0,0,0,.414.331.664.664,0,0,0,.248.055,1.338,1.338,0,0,0,.5-.11,2.97,2.97,0,0,1,.937-.165,1.668,1.668,0,0,1,1.405.606,2.2,2.2,0,0,1,.469,1.378,2.58,2.58,0,0,1-.055.5l-.331,2.315-.11.662q-.165,1.157-.331,2.315a20.26,20.26,0,0,0-.22,2.976q0,.607.082,1.957a14.284,14.284,0,0,0,.744,3.39l.165.826v.331a1.774,1.774,0,0,1-1.213,1.764,2.085,2.085,0,0,1-.661.11,2.835,2.835,0,0,1-.744-.137,1.844,1.844,0,0,1-.909-.744,2.98,2.98,0,0,1-.413-.8q-.138-.413-.248-.854-.277-.936-.469-1.9t-.469-1.957m-5.677,1.047a.75.75,0,0,0,.441-.248,2.028,2.028,0,0,0,.276-.413,22.909,22.909,0,0,0,2.178-3.721q.909-1.956,1.846-3.886a1.258,1.258,0,0,0,.166-.661,1.48,1.48,0,0,0-.111-.551q-.111-.385-.22-.827a.71.71,0,0,0-.551-.551.919.919,0,0,0-.275-.055.619.619,0,0,0-.5.3,4.872,4.872,0,0,1-.5.579,11.845,11.845,0,0,0-2.37,3.831,13.315,13.315,0,0,0-.827,4.382v.441c0,.147.009.349.027.606a1.242,1.242,0,0,0,.414.772" transform="translate(-88.255 -18.97)" fill="#f2b1ca"/>
        <path id="Trazado_1575" data-name="Trazado 1575" d="M237.646,52.666v4.52a3.361,3.361,0,0,1-.275,1.488,1.706,1.706,0,0,1-1.654,1.213h-.275a1.857,1.857,0,0,1-1.764-1.489,1.914,1.914,0,0,1-.11-.606,2.876,2.876,0,0,1,.028-.331q.027-.22.082-.607.165-2.369.166-4.712a42.284,42.284,0,0,0-.276-4.768,14.4,14.4,0,0,0-.661-3.087q-.165-.5-.5-.5a.757.757,0,0,0-.441.276,5.637,5.637,0,0,0-.937.937,5.449,5.449,0,0,0-.662,1.1,25.83,25.83,0,0,0-1.791,5.071A21.512,21.512,0,0,0,228,56.083v.827a3.331,3.331,0,0,0,.027.469,2.463,2.463,0,0,1,.028.248,1.1,1.1,0,0,1-.11.5,1.784,1.784,0,0,1-.579,1.075,2.195,2.195,0,0,1-1.075.523.919.919,0,0,1-.275.056,1.9,1.9,0,0,1-.992-.3,1.988,1.988,0,0,1-.771-.909,3.2,3.2,0,0,1-.276-1.433v-.662a27.25,27.25,0,0,1,3.087-12.622,9.094,9.094,0,0,1,.964-1.515,8.371,8.371,0,0,1,1.323-1.35,6.489,6.489,0,0,1,1.6-.965,4.455,4.455,0,0,1,1.736-.358,3.325,3.325,0,0,1,2.37.882,6.385,6.385,0,0,1,1.488,2.177,12.335,12.335,0,0,1,.8,2.728,21.415,21.415,0,0,1,.3,2.536q.054.773.055,1.543,0,.386-.027,1.185t-.028,1.957" transform="translate(-104.163 -18.443)" fill="#f2b1ca"/>
        <path id="Trazado_1576" data-name="Trazado 1576" d="M256.9,47.773a44.242,44.242,0,0,1,.11-4.465q.165-2.15.441-4.3.11-.771.22-1.213a2.336,2.336,0,0,1,.882-1.185,1.79,1.79,0,0,1,1.323-.3,2.175,2.175,0,0,1,1.24.717,1.857,1.857,0,0,1,.413,1.378q-.055.772-.137,1.571t-.193,1.571q-.277,2.976-.3,5.98a49.894,49.894,0,0,0,.3,5.98,7.18,7.18,0,0,1-.22,1.792q-.221.854-1.488,1.02a1.654,1.654,0,0,1-1.213-.248,2.157,2.157,0,0,1-.826-1.075,2.791,2.791,0,0,1-.165-.634c-.037-.239-.074-.469-.11-.689q-.166-1.488-.275-2.976a19.143,19.143,0,0,1,0-2.921m5.236-14.992a1.98,1.98,0,0,1-.579,1.46,1.9,1.9,0,0,1-2.756-.028,2,2,0,0,1-.579-1.433,1.988,1.988,0,0,1,3.39-1.405,1.74,1.74,0,0,1,.524,1.405" transform="translate(-119.448 -14.322)" fill="#f2b1ca"/>
        <path id="Trazado_1577" data-name="Trazado 1577" d="M282.4,43.436q.385-.331.717-.661a5.694,5.694,0,0,1,.716-.607,4.4,4.4,0,0,1,2.646-.992,2.822,2.822,0,0,1,2.26.964,6.076,6.076,0,0,1,1.213,2.315,14.168,14.168,0,0,1,.5,2.811q.11,1.461.11,2.453a96.794,96.794,0,0,1-.5,9.756v.358a1.154,1.154,0,0,1-.055.358,2.494,2.494,0,0,1-.882,1.268,1.821,1.821,0,0,1-1.378.331,1.876,1.876,0,0,1-1.24-.689,2.121,2.121,0,0,1-.414-1.515q.11-1.654.248-3.308t.138-3.307q.054-1.708.055-3.417a21.462,21.462,0,0,0-.275-3.417,3.091,3.091,0,0,0-.165-.386.569.569,0,0,0-.524.22q-.138.221-.248.441a7.914,7.914,0,0,0-.882,1.571q-.331.8-.607,1.681a2.2,2.2,0,0,1-2.2,1.709q-1.6-.11-1.984-1.984-.165-.716-.3-1.405t-.3-1.406q-.111-.441-.193-.826a1.325,1.325,0,0,0-.469-.717,2.989,2.989,0,0,0-.854.882,6.071,6.071,0,0,0-.524,1.1,24.014,24.014,0,0,0-1.35,5.732,14.871,14.871,0,0,0,.579,5.843,2.463,2.463,0,0,1,0,1.626,1.666,1.666,0,0,1-.992.964,2.149,2.149,0,0,1-1.516,0,2.222,2.222,0,0,1-1.185-1.1,7.311,7.311,0,0,1-.606-1.957q-.165-1.019-.276-2.067a28.578,28.578,0,0,1,.193-4.878,22.245,22.245,0,0,1,1.13-4.712,16.914,16.914,0,0,1,.826-1.929,8.715,8.715,0,0,1,1.213-1.819,7.051,7.051,0,0,1,1.6-1.377,3.669,3.669,0,0,1,1.984-.552,3.566,3.566,0,0,1,2.976,1.543,2.8,2.8,0,0,1,.358.579,1.255,1.255,0,0,0,.469.524" transform="translate(-126.321 -18.97)" fill="#f2b1ca"/>
        <path id="Trazado_1578" data-name="Trazado 1578" d="M316.271,51.173a6.194,6.194,0,0,0,.606,2.508,5.27,5.27,0,0,0,3.638,2.893,5.87,5.87,0,0,0,2.535,0,11.1,11.1,0,0,0,2.149-.661,15.214,15.214,0,0,0,2.04-1.047q1.1-.606,2.149-1.212t2.15-1.213a44.144,44.144,0,0,1,5.291-2.315,16.468,16.468,0,0,1,5.677-1.047,11.11,11.11,0,0,1,2.949.386,8.073,8.073,0,0,1,2.508,1.157,5.674,5.674,0,0,1,1.764,2.012,6.776,6.776,0,0,1,.717,3,6.55,6.55,0,0,1-.524,2.673,5.923,5.923,0,0,1-1.433,2.012,6.656,6.656,0,0,1-2.149,1.3,7.36,7.36,0,0,1-2.619.469,6.693,6.693,0,0,1-1.764-.275,8.566,8.566,0,0,1-.826-.358,2.767,2.767,0,0,1-.717-.524,2.515,2.515,0,0,1-.661-1.322,1.72,1.72,0,0,1,.331-1.323,1.84,1.84,0,0,1,1.543-.826,2.13,2.13,0,0,1,1.047.275,2.329,2.329,0,0,0,1.268.386,3.187,3.187,0,0,0,1.212-.275,2.131,2.131,0,0,0,1.378-2.149,2.325,2.325,0,0,0-.386-1.406,2.736,2.736,0,0,0-.992-.826,3.986,3.986,0,0,0-1.35-.386,13.109,13.109,0,0,0-1.461-.083,10.254,10.254,0,0,0-2.48.331,22.569,22.569,0,0,0-2.673.854q-1.351.525-2.591,1.13t-2.232,1.158q-1.269.717-2.535,1.488a25.384,25.384,0,0,1-2.591,1.378,14.387,14.387,0,0,1-3.142,1.047,11.01,11.01,0,0,1-3.307.165,8.606,8.606,0,0,1-3.031-.771,9.775,9.775,0,0,1-2.563-1.709,9.15,9.15,0,0,1-1.873-2.453,8.974,8.974,0,0,1-.965-3,14.27,14.27,0,0,1,7.5-14.772,10.273,10.273,0,0,1,2.122-.937,7.754,7.754,0,0,1,2.287-.33,4.182,4.182,0,0,1,3.252,1.267,4.266,4.266,0,0,1,.992,3.362A10.088,10.088,0,0,1,327.6,44.5a11.358,11.358,0,0,1-1.93,2.893,12.649,12.649,0,0,1-2.7,2.232A9.548,9.548,0,0,1,319.8,50.9q-.883.165-1.736.248a11.6,11.6,0,0,1-1.791.027m8.157-10.693a7.963,7.963,0,0,0-2.536.8,10.507,10.507,0,0,0-2.315,1.571,10.99,10.99,0,0,0-1.792,2.04,5.378,5.378,0,0,0-.909,2.2,5.657,5.657,0,0,0,2.756-.248,7.306,7.306,0,0,0,2.48-1.433,7.52,7.52,0,0,0,1.764-2.26,4.918,4.918,0,0,0,.551-2.673" transform="translate(-145.199 -17.006)" fill="#f2b1ca"/>
        <path id="Trazado_1579" data-name="Trazado 1579" d="M.329,41.1a5.163,5.163,0,0,0,2.7-2.529,15.342,15.342,0,0,0,1.2-3.58,9.33,9.33,0,0,0,2.647,7.458A5.135,5.135,0,0,0,2.2,45.287,4.509,4.509,0,0,0,.414,40.9" transform="translate(-0.153 -16.272)" fill="#ff0"/>
        <path id="Trazado_1580" data-name="Trazado 1580" d="M.221,41.067c2.7-.775,3.5-3.818,4.08-6.211l-.453-.062a9.6,9.6,0,0,0,2.694,7.641c.062-.147.123-.295.183-.442a5.427,5.427,0,0,0-4.891,2.975l.45.19A4.85,4.85,0,0,0,.4,40.47c-.286-.214-.57.271-.281.481a4.256,4.256,0,0,1,1.689,4.076c-.042.254.315.46.45.19a4.922,4.922,0,0,1,4.466-2.706.262.262,0,0,0,.183-.442,9.226,9.226,0,0,1-2.6-7.275c.026-.261-.391-.309-.453-.061-.595,2.368-1.39,4.9-3.766,6.024-.175.083-.051.361.131.309" transform="translate(0 -16.078)" fill="#e8c82a"/>
        <path id="Trazado_1581" data-name="Trazado 1581" d="M353.75,41.1a5.163,5.163,0,0,0,2.7-2.529,15.341,15.341,0,0,0,1.2-3.58,9.33,9.33,0,0,0,2.647,7.458,5.135,5.135,0,0,0-4.679,2.84,4.508,4.508,0,0,0-1.786-4.382" transform="translate(-164.515 -16.272)" fill="#ff0"/>
        <path id="Trazado_1582" data-name="Trazado 1582" d="M353.642,41.067c2.7-.775,3.5-3.818,4.08-6.211l-.453-.062a9.6,9.6,0,0,0,2.694,7.641c.062-.147.123-.295.184-.442a5.427,5.427,0,0,0-4.892,2.975l.45.19a4.85,4.85,0,0,0-1.883-4.689c-.286-.214-.57.271-.281.481a4.256,4.256,0,0,1,1.689,4.076c-.042.254.315.46.45.19a4.922,4.922,0,0,1,4.466-2.706.262.262,0,0,0,.183-.442,9.226,9.226,0,0,1-2.6-7.275c.026-.261-.39-.309-.453-.061-.595,2.368-1.39,4.9-3.766,6.024-.175.083-.051.361.131.309" transform="translate(-164.362 -16.078)" fill="#e8c82a"/>
      </g>
    </g>
  </g>
</svg>
