<svg xmlns="http://www.w3.org/2000/svg" xmlns:xlink="http://www.w3.org/1999/xlink" width="286" height="199.885" viewBox="0 0 286 199.885">
  <defs>
    <clipPath id="clip-path">
      <rect id="Rectángulo_1610" data-name="Rectángulo 1610" width="101.08" height="111.571" fill="none"/>
    </clipPath>
    <clipPath id="clip-path-3">
      <rect id="Rectángulo_1607" data-name="Rectángulo 1607" width="15.611" height="11.183" fill="none"/>
    </clipPath>
    <clipPath id="clip-path-4">
      <rect id="Rectángulo_1608" data-name="Rectángulo 1608" width="14.85" height="11.735" fill="none"/>
    </clipPath>
    <clipPath id="clip-path-5">
      <rect id="Rectángulo_1611" data-name="Rectángulo 1611" width="286" height="75.773" fill="none"/>
    </clipPath>
  </defs>
  <g id="Grupo_11024" data-name="Grupo 11024" transform="translate(-11 -7.466)">
    <g id="Grupo_11014" data-name="Grupo 11014" transform="translate(102.968 7.466)">
      <g id="Grupo_11013" data-name="Grupo 11013" clip-path="url(#clip-path)">
        <g id="Grupo_11012" data-name="Grupo 11012">
          <g id="Grupo_11011" data-name="Grupo 11011" clip-path="url(#clip-path)">
            <path id="Trazado_1474" data-name="Trazado 1474" d="M101.08,57.9A50.54,50.54,0,1,1,50.54,7.362,50.54,50.54,0,0,1,101.08,57.9" transform="translate(0 -2.321)" fill="#e0cde8"/>
            <path id="Trazado_1475" data-name="Trazado 1475" d="M81,92.506c.071.027-.074-.024,0,0,1.712-.772,2.728-2.175,2.768-2.936-.044-.235-.357-.09-.405-.323-.119-.58.8-1,.7-1.587-.234-1.313-1.186-2.721-.761-3.818a8.892,8.892,0,0,1,1.95-7.912l-.038-.032a5.632,5.632,0,0,1-.575-.6,6.174,6.174,0,0,1-.819-1.4,10.361,10.361,0,0,1-.744-3.094c-.266-2.807.042-5.618-.527-8.4a1.308,1.308,0,0,0-2.367-.31c-.579,1.135-1.173,2.264-1.728,3.411-.238.49-.468.985-.716,1.471a1.309,1.309,0,0,1-.216-.2c-.136-.14-.266-.3-.388-.449a15.269,15.269,0,0,1-2.514-5.387c-.563-1.943-.968-3.928-1.533-5.87-.4-1.386-1.056-4.543-3.146-3.889a1.143,1.143,0,0,0-.829,1.09c.443,3.5,1.338,7.5-.338,10.82a6.912,6.912,0,0,1-2.937,3.131,4.764,4.764,0,0,1-2.151.494,6.567,6.567,0,0,1-2.5-.222c-.668-.316-1.065-1.289-1.358-1.925a13.463,13.463,0,0,1-.849-2.582,35.984,35.984,0,0,1-.751-5.637c-.3-4.028-.312-8.085-.2-12.12a1.111,1.111,0,0,0-1.872-.775C50.05,48.193,49.8,56.279,47.179,63c-.214-.551-.346-1.157-.484-1.619a38.5,38.5,0,0,1-.979-4.093,36.245,36.245,0,0,1-.539-8.267,1.124,1.124,0,0,0-2.077-.562c-2.13,3.314-2.824,7.189-4.076,10.863-1.306,3.83-3.713,6.957-6.237,10.057a.581.581,0,0,0-.461.47,26.72,26.72,0,0,0-.545,5.908,5.637,5.637,0,0,0-2.5,10.483,14.074,14.074,0,0,1,3.409.469c.844-.774.679-2.173.691-1.03.018,1.768.6,2.475.712,4.939.081,1.833.824,2.25,1.732,3.639.047.1.094.2.135.294.056.027.112.058.169.083-.027.049-.053.1-.077.153a4.394,4.394,0,0,1-.972,4.7l-.006.006c0,.119-.005.238-.005.357a26.757,26.757,0,0,0,1.781,8.763c.794,2.265,1.61,4.946,3.528,6.534a4.713,4.713,0,0,0,6.283-.18,5.336,5.336,0,0,0,1.734-3.339,6.847,6.847,0,0,0,0-1.436,1.617,1.617,0,0,0,.336-1.461,14.88,14.88,0,0,0,9.639,3.492,10.32,10.32,0,0,0,6.693-2.752,7.574,7.574,0,0,0,1.007,4.727,5.538,5.538,0,0,0,7.061,1.762c2.429-1.257,2.743-4.17,3.086-6.789a37.946,37.946,0,0,0,.692-4.21,35.4,35.4,0,0,1,.481-4.367c.277-2.031-.918-3.422-2.232-4.737A36.812,36.812,0,0,0,81,92.506" transform="translate(-8.355 -13.613)" fill="#ffece1"/>
            <path id="Trazado_1476" data-name="Trazado 1476" d="M87.031,127.956c-2.24-.225-3.229-2.373-2.707-4.482a.519.519,0,0,0-.858-.514c-2.271,2.358-.809,6.024,1.845,7.1a15.172,15.172,0,0,0-1.189,6.192,6.5,6.5,0,0,0,.868,3.178,3.466,3.466,0,0,0,1.082,1.165,1.906,1.906,0,0,0,1.415.147.525.525,0,0,0,.354-.879c-.242-.262-.372-.646-.6-.943a3.842,3.842,0,0,1-.562-.945,6.873,6.873,0,0,1-.418-2.381,9.865,9.865,0,0,1,1.791-5.82,1.225,1.225,0,0,0-1.018-1.821" transform="translate(-25.961 -38.718)" fill="#ffb7a7"/>
            <path id="Trazado_1477" data-name="Trazado 1477" d="M55.73,132.812a13.726,13.726,0,0,0-.483-2.16,3.5,3.5,0,0,0-.8-1.609,1.46,1.46,0,0,0-1.271-.37,18.38,18.38,0,0,0-2.069-2.918,5.913,5.913,0,0,0,3.872-2.864c.93-1.909.717-4.937-1.4-5.925a.112.112,0,0,0-.166.094,19.964,19.964,0,0,0,.03,2.462,3.5,3.5,0,0,1-.665,2.4c-1.033,1.243-2.741,1.618-4.227,2.025a1.179,1.179,0,0,0-.516,1.955,13.388,13.388,0,0,1,3.774,5.659c.626,1.8,1.144,4.167.208,5.966-.253.487.275,1.106.785.786a4.313,4.313,0,0,0,1.99-3.046.771.771,0,0,0,.787-.316,3.128,3.128,0,0,0,.144-2.145" transform="translate(-15.037 -36.873)" fill="#ffb7a7"/>
            <path id="Trazado_1478" data-name="Trazado 1478" d="M74.341,124.884a2.773,2.773,0,0,0-1.13.027c-.409.1-.808.239-1.221.324a12.225,12.225,0,0,1-2.49.179,15.592,15.592,0,0,1-2.325-.144A4.241,4.241,0,0,1,66.107,125a3.79,3.79,0,0,0-1.278-.5.726.726,0,0,0-.721.721c.032,1.135,1.381,1.728,2.312,2.01a10.755,10.755,0,0,0,3.007.29,10.43,10.43,0,0,0,3.095-.353c.956-.288,2.046-.842,2.053-1.973a.32.32,0,0,0-.233-.306" transform="translate(-20.212 -39.249)" fill="#ffb7a7"/>
            <path id="Trazado_1479" data-name="Trazado 1479" d="M67.991,53.034a51.932,51.932,0,0,0-3.741,9.75,32.564,32.564,0,0,0-.83,5.052c-.147,1.6-.392,3.7.239,5.224.327.789,1.641,1.038,1.863,0a39.927,39.927,0,0,0,.225-5,17.655,17.655,0,0,0,.4,2.334c.11.437.236.874.386,1.3.118.335.281.818.7.848.824.058.28-1.328.179-1.693a20.518,20.518,0,0,1-.614-3.08,24.079,24.079,0,0,1,.088-6.074.373.373,0,0,0-.006-.142c.609-2.727,1.328-5.434,1.951-8.156.112-.488-.609-.853-.848-.357" transform="translate(-19.941 -16.646)" fill="#ffb7a7"/>
            <path id="Trazado_1480" data-name="Trazado 1480" d="M80.692,82.92c-.351-.611-1.119-.669-1.761-.68q-.769-.013-1.537-.064l-1.53-.1a4.843,4.843,0,0,0-.79-.027c-.263.027-.525.064-.787.092a.637.637,0,0,0-.59.448.616.616,0,0,0,.281.69,6.128,6.128,0,0,0,1.529.588c.588.121,1.176.213,1.773.277q.795.084,1.593.131a4.458,4.458,0,0,0,.87-.052,1.154,1.154,0,0,0,.949-.581.728.728,0,0,0,0-.726" transform="translate(-23.228 -25.866)" fill="#ffb7a7"/>
            <path id="Trazado_1481" data-name="Trazado 1481" d="M94.99,71.66c-.062-.785-.114-1.567-.165-2.353-.012-.194-.319-.264-.359-.049a13.992,13.992,0,0,1-.583,2.171c-.248.687-.415,1.4-.639,2.1s-.378,1.417-.589,2.119a7.6,7.6,0,0,0-.516,2.262c.014.6.844,1.054,1.284.532a5.493,5.493,0,0,0,.949-2.151,16.082,16.082,0,0,0,.508-2.379,12.178,12.178,0,0,0,.11-2.249" transform="translate(-29.049 -21.794)" fill="#ffb7a7"/>
            <path id="Trazado_1482" data-name="Trazado 1482" d="M104.526,84.347c-.031-.2-.061-.406-.092-.609q-.09-.6-.18-1.2c-.035-.231-.418-.176-.408.055q.025.606.05,1.213.011.3.024.6a.938.938,0,0,0,.054.365c.041.088.088.175.134.26a.2.2,0,0,0,.357-.047c.029-.094.065-.192.085-.289a1,1,0,0,0-.025-.349" transform="translate(-32.74 -25.977)" fill="#ffb7a7"/>
            <path id="Trazado_1483" data-name="Trazado 1483" d="M97.953,50.117q-.023-.409-.05-.818a21.255,21.255,0,0,0-1.223-6.571A56.069,56.069,0,0,0,87.5,27.437a22.981,22.981,0,0,0-1.973-1.986l-.045-.036a10.523,10.523,0,0,0,1.6-2.192A12.949,12.949,0,0,0,88.61,17.7,14.1,14.1,0,0,0,84.65,7.283C78.957,1.215,68.609-.333,61.674,4.518c-3.26,2.281-6.58,6.723-5.631,10.9a22.372,22.372,0,0,0-9.763,1.156,24.341,24.341,0,0,0-4.718,2.245,8.4,8.4,0,0,1-2.228,1.2,1.744,1.744,0,0,1-1.14-.031c-.309-.14-.746-.611-.456-.983.7-.813-.437-1.986-1.189-1.189a2.379,2.379,0,0,0-.475.737,5.423,5.423,0,0,0-.4,4.037C30.2,26.253,25.162,30.793,21.8,36.523s-4.949,12.565-3.355,19.109a19.576,19.576,0,0,0,5.2,9.3,1.073,1.073,0,0,0,1.034.273c1.2-.331,2.781-2.729,3.893-1.914.9.66,1.1-.261,1.261-1.3.276-1.826.562-3.65.847-5.476.039.072.082.139.119.214a1.085,1.085,0,0,0,1.218.5,2.3,2.3,0,0,0,1.277-1.008c.249-.4.275-.8.735-.866.414-.056,1.028.318,1.439.414a3.241,3.241,0,0,0,1.6.04c1.3-.365,1.693-1.63,1.754-2.835.081-1.627.113-3.237.307-4.857a43.321,43.321,0,0,1,2.916-11.145,66.683,66.683,0,0,0-.711,11.1c.031,1.645-.157,3.7,1.109,4.964a16.657,16.657,0,0,0,2.229,1.647l2.551,1.794a1.153,1.153,0,0,0,1.686-.686A56.534,56.534,0,0,1,53.1,41.21c-.126.826-.24,1.654-.338,2.482a54.625,54.625,0,0,0-.382,6.938c.019,1.874-.234,4.416,1.217,5.862,1.4,1.4,3.7,1.156,5.5,1.159,2.451,0,4.9.033,7.351.049a2.884,2.884,0,0,0,2.46-.816,2.973,2.973,0,0,0,.548-1.056,9.182,9.182,0,0,0,1.261.566c1.8.731,3.708,1.3,5,2.838.69.822,1.242,1.754,1.882,2.615.737.991,1.582,1.907,2.342,2.883a.876.876,0,0,0,1.064.137c1.96-1.313,3.79-2.946,6.316-2.41a6.174,6.174,0,0,1,4.416,3.574,1.023,1.023,0,0,0,1.595.2c4.612-4.434,4.953-10.19,4.62-16.117" transform="translate(-5.619 -0.52)" fill="#ffd576"/>
            <path id="Trazado_1484" data-name="Trazado 1484" d="M18.972,60.752a15.454,15.454,0,0,0-.029,8.237,9.119,9.119,0,0,0,5.379,5.979,3.337,3.337,0,0,0,2.312.112c1.183-.469,1.684-1.842,2.011-3.071a57.6,57.6,0,0,0,1.594-8.56,25.011,25.011,0,0,0,.068,9.307,5.351,5.351,0,0,1,.168,1.552,5.754,5.754,0,0,1-.312,1.191,14.8,14.8,0,0,0-.607,6.358A6.06,6.06,0,0,0,26.2,82.7a6.366,6.366,0,0,1-1.513.816,3.178,3.178,0,0,1-2.453-.552,9.959,9.959,0,0,1-3.719-5.2c-1.693-4.663-1.62-9.944.458-17.015" transform="translate(-5.461 -19.154)" fill="#e2a359"/>
            <path id="Trazado_1485" data-name="Trazado 1485" d="M53.338,51.458a23.231,23.231,0,0,0-1.253,5.6,7.815,7.815,0,0,0,1.535,5.411,2.685,2.685,0,0,0,2.525,1.146,3.343,3.343,0,0,0,1.743-1.476,63.353,63.353,0,0,0,4.955-8.037c-2.513,5.718-4.46,11.965-3.544,18.143a21.325,21.325,0,0,0-5.946-3.035,2.164,2.164,0,0,1-1.032-.549,2.063,2.063,0,0,1-.364-.927,34.525,34.525,0,0,1-.975-6.725c-.028-2.269.42-4.6,2.355-9.555" transform="translate(-16.073 -16.223)" fill="#e2a359"/>
            <path id="Trazado_1486" data-name="Trazado 1486" d="M36.528,59.255a8.166,8.166,0,0,0,.664,4.511A2.878,2.878,0,0,0,38.246,65.1a2.363,2.363,0,0,0,2.514-.288,6.95,6.95,0,0,0,1.681-2.065l4.593-7.423a29.546,29.546,0,0,0-2.375,13.817,21.181,21.181,0,0,0-7.571,3.713c-.164.126-.379.261-.561.164a.528.528,0,0,1-.208-.3,18.5,18.5,0,0,1,.209-13.468" transform="translate(-11.082 -17.443)" fill="#e2a359"/>
            <path id="Trazado_1487" data-name="Trazado 1487" d="M69.554,53.313a21.41,21.41,0,0,0,.071,7.928,2.815,2.815,0,0,0,1.46,2.082c.826.309,1.959-.552,1.557-1.337a4.75,4.75,0,0,0,3.951,2.987c2.961.253,5.48-2.408,6.351-5.25s.579-5.889.765-8.856l2.572,11.086a1.28,1.28,0,0,0,.218.543c.482.58,1.452-.113,1.583-.857s-.1-1.562.255-2.229a14.3,14.3,0,0,0,1.582,3.974,2,2,0,0,0,.618.731,1.483,1.483,0,0,0,1.89-.578,4.315,4.315,0,0,0,.549-2.088l-.959,10.3a6.007,6.007,0,0,0-6.1-2.943,2.472,2.472,0,0,0-2.095,1.49,2,2,0,0,1-.246.739,1.206,1.206,0,0,1-.77.341,81.341,81.341,0,0,1-12.533,1.22,1.353,1.353,0,0,1-.837-.167,1.331,1.331,0,0,1-.416-.748c-1.554-5.344-1.451-11.157.531-18.366" transform="translate(-21.424 -16.037)" fill="#e2a359"/>
            <path id="Trazado_1488" data-name="Trazado 1488" d="M102.7,71.272a11.652,11.652,0,0,0,13.135,7.748,9.138,9.138,0,0,0,6.451-4.349c1.2-2.218,1.18-4.869,1.129-7.391a23.419,23.419,0,0,1-.745,14.216c-.929,2.418-1.447,4.69-3.745,5.887-2.947,3.63-7.662,7.568-10.081,7.236s-1.141-11.22-2.506-9.2c-.253-.8.388-1.249.135-2.053a1.021,1.021,0,0,0-.342-.581c-.192-.127-.52-.049-.545.179-.2-1.3-.47-2.72-1.5-3.533-.393-.31-.867-.5-1.264-.809a3.726,3.726,0,0,1-1.277-2.955,12.615,12.615,0,0,1,1.154-4.4" transform="translate(-32.015 -21.211)" fill="#e2a359"/>
            <path id="Trazado_1489" data-name="Trazado 1489" d="M76.454,8.826a2.168,2.168,0,0,0-.6,2.809,2.167,2.167,0,0,0,2.771.754,4.186,4.186,0,0,0,1.128-1.022L83.8,6.686a4.559,4.559,0,0,0-.322,4.99c1.012,1.454,3.616,1.618,4.419.038.889,3.142,3.812,5.266,6.758,6.674a10.623,10.623,0,0,0,3.919,1.191,6.618,6.618,0,0,0,6.7-6.616A20.32,20.32,0,0,1,102.16,26.87a5.409,5.409,0,0,0-2.4-2.794A41.4,41.4,0,0,0,85.128,17.6a9.138,9.138,0,0,0-3.883-.242,3.636,3.636,0,0,0-2.839,2.411,9.984,9.984,0,0,0-5.871-2.46,42.331,42.331,0,0,1,3.919-8.484" transform="translate(-22.869 -2.108)" fill="#e2a359"/>
            <path id="Trazado_1490" data-name="Trazado 1490" d="M76.676,7.579A17.763,17.763,0,0,1,90.71.213c5.483.068,10.946,3.569,12.693,8.767-3.467-4.072-9.318-5.038-14.661-5.254-2.753-.112-6.081.233-7.313,2.7a7.5,7.5,0,0,0,2.47-1.4,21.2,21.2,0,0,0-2.64,4.53c.678-.677.015-1.962-.921-2.165a3.432,3.432,0,0,0-2.644.876,14.058,14.058,0,0,0-3.782,4.221c.1-2.857,1.289-5.663,2.764-4.911" transform="translate(-23.303 -0.067)" fill="#fff4b6"/>
            <path id="Trazado_1491" data-name="Trazado 1491" d="M36.626,32.9a29.592,29.592,0,0,0-17.66,24.517,27.689,27.689,0,0,1,9.6-14.222,6.548,6.548,0,0,0,.306,2.385,15.624,15.624,0,0,1,2.545-1.684c.634.47.556,1.511,1.15,2.031.751.657,1.921.031,2.612-.689s1.463-1.623,2.453-1.5c1.007.129,1.532,1.248,1.819,2.222A27.52,27.52,0,0,1,40.461,51.3a41.954,41.954,0,0,1,6.183-12.563,16.538,16.538,0,0,0-5.059,4.1c.572-1.24-.718-2.688-2.078-2.814a6.51,6.51,0,0,0-3.8,1.311c.861-1.078-.454-2.768-1.834-2.767s-2.532,1-3.543,1.936a18.368,18.368,0,0,1,6.3-7.613" transform="translate(-5.98 -10.372)" fill="#fff4b6"/>
            <path id="Trazado_1492" data-name="Trazado 1492" d="M94.721,47.05A7.3,7.3,0,0,0,97,48.548a2.481,2.481,0,0,0,2.56-.444,3.787,3.787,0,0,1,.6-.622c.683-.44,1.535.139,2.216.582a7.4,7.4,0,0,0,9.329-1.342,3.38,3.38,0,0,0,.915-1.945,4.4,4.4,0,0,0-.339-1.643l-1.664-4.83A35.836,35.836,0,0,1,119.28,55.35a15.048,15.048,0,0,0-3.857-4.121,2.1,2.1,0,0,0-1.111-.494c-1.463-.054-1.656,2.321-2.958,2.989a4.534,4.534,0,0,0-5.817-1.285c-.537.316-1.078.766-1.7.689a2.176,2.176,0,0,1-.92-.438l-3.163-2.182a39.168,39.168,0,0,0-1.968,7.034A97.359,97.359,0,0,0,94.721,47.05" transform="translate(-29.863 -12.077)" fill="#fff4b6"/>
            <path id="Trazado_1493" data-name="Trazado 1493" d="M71.634,48.2a19.062,19.062,0,0,0,1.1,4.341,1.513,1.513,0,0,0,1.732-1.245,4.117,4.117,0,0,0,2.7,2.316,12.172,12.172,0,0,0,3.643.383,2.186,2.186,0,0,0,.935-.133,1.982,1.982,0,0,0,.913-1.438,9.014,9.014,0,0,0,.086-3.733,15.874,15.874,0,0,1,1.1,7.512,3.822,3.822,0,0,1-1.679-.844c-.54-.333-1.347-.483-1.732.023a2.8,2.8,0,0,0-.3.816c-.1.276-.322.558-.613.533a.873.873,0,0,1-.418-.205,7.616,7.616,0,0,0-2.581-1.209c-1.072-.273-2.282-.349-3.075-1.12-.111-.108-.238-.238-.392-.219a.466.466,0,0,0-.255.164,16.909,16.909,0,0,0-2.355,3.048,18.652,18.652,0,0,1,1.194-8.99" transform="translate(-22.166 -15.195)" fill="#fff4b6"/>
            <path id="Trazado_1494" data-name="Trazado 1494" d="M56.452,43.966a27.568,27.568,0,0,0,.511,3.629,2.355,2.355,0,0,0,1.982-.905,6.792,6.792,0,0,0,1.088,2.576,1.818,1.818,0,0,0,1.636.975,2.06,2.06,0,0,0,1.093-.791l3.53-4.027C64.109,48.7,61.9,52.031,60.709,55.784a4.9,4.9,0,0,0-.514-3.144c-.621-.887-2.182-1.141-2.718-.2a3.787,3.787,0,0,0-.168-2.462,1.123,1.123,0,0,0-.47-.594,1.238,1.238,0,0,0-1.134.191,8.5,8.5,0,0,0-3.682,4.284l2.027-6.53a5.874,5.874,0,0,1,2.4-3.365" transform="translate(-16.402 -13.861)" fill="#fff4b6"/>
            <path id="Trazado_1495" data-name="Trazado 1495" d="M57.588,132.613a19.43,19.43,0,0,1,2-4.92,4.768,4.768,0,0,1,1.159-1.458,1.928,1.928,0,0,1,1.76-.37q-1.917,4.208-3.652,8.495a7.151,7.151,0,0,0-1.269-1.746" transform="translate(-18.156 -39.656)" fill="#fdfbee"/>
            <path id="Trazado_1496" data-name="Trazado 1496" d="M79.513,125.984l2.054-.253c-.094-.126-.26.081-.27.238a5.314,5.314,0,0,0,1.324,3.854,2.424,2.424,0,0,1,.392.506,1.943,1.943,0,0,1,.15.546l.3,1.774a.823.823,0,0,1-.193.795l-.974,1.4c-1.107-2.955-2-5.99-2.787-8.858" transform="translate(-25.068 -39.628)" fill="#fdfbee"/>
            <path id="Trazado_1497" data-name="Trazado 1497" d="M82.387,111.96l.234-3.819" transform="translate(-25.975 -34.094)" fill="#fdfbee"/>
            <path id="Trazado_1498" data-name="Trazado 1498" d="M68.915,126.119c-.3,1.993,3.069,12.358,3.892,14.2s3.07,3.194,4.9,2.347a22.59,22.59,0,0,0,2.7,4.578,14.922,14.922,0,0,1-4.186,2.077A37.535,37.535,0,0,1,46.5,146.95c-.312-.168-.67-.439-.6-.785a.834.834,0,0,1,.2-.345l2.242-2.668a2.654,2.654,0,0,1,.679-.637,3.1,3.1,0,0,1,.791-.264,7.367,7.367,0,0,0,4.375-2.966,5.479,5.479,0,0,0,.522-5.158c1.167,1.1,2.379-7.846,3.749-7.006s2.738,2.657,4.329,2.509c3.986-.373,3.994-.639,6.115-3.511" transform="translate(-14.47 -39.762)" fill="#fdfbee"/>
            <path id="Trazado_1499" data-name="Trazado 1499" d="M55.046,85.431a8.341,8.341,0,1,1-8.341-8.341,8.341,8.341,0,0,1,8.341,8.341" transform="translate(-12.095 -24.305)" fill="#fff"/>
            <path id="Trazado_1500" data-name="Trazado 1500" d="M98.9,85.918a8.341,8.341,0,1,1-8.341-8.341A8.341,8.341,0,0,1,98.9,85.918" transform="translate(-25.921 -24.458)" fill="#fff"/>
            <path id="Trazado_1501" data-name="Trazado 1501" d="M107.731,89.776a30.545,30.545,0,0,0-1.224,6.02,10.241,10.241,0,0,0,1.223,5.936c2.034,3.392,6.222,4.642,9.833,6.258a6.154,6.154,0,0,1,2.071,1.319,2.357,2.357,0,0,1,.62,2.273,3.073,3.073,0,0,1-.962,1.256,11.6,11.6,0,0,1-3.165,1.975,6.793,6.793,0,0,0,4.753-1.293,2.3,2.3,0,0,0,.722-.78,2.181,2.181,0,0,0,.169-1.089,7.306,7.306,0,0,0-3.064-5.131,34.892,34.892,0,0,0-5.353-3.037,7.707,7.707,0,0,1-2.953-2.32,7.359,7.359,0,0,1-1.005-3.3,26.062,26.062,0,0,1,.743-9.823A20.549,20.549,0,0,0,107.1,92" transform="translate(-33.57 -27.757)" fill="#ffd576"/>
            <path id="Trazado_1502" data-name="Trazado 1502" d="M24.778,108.972a2.432,2.432,0,0,0,.243,2.27,2.207,2.207,0,0,0,1.806.6,5.6,5.6,0,0,0,3.543-1.715,11.483,11.483,0,0,0,2.2-3.345,5.96,5.96,0,0,0,.392,3.665,16.576,16.576,0,0,1-4.351,2.9,5.675,5.675,0,0,1-4.226.134,3.513,3.513,0,0,1-2.226-3.384,4.93,4.93,0,0,1,1.759-2.933c.553-.523,1.454-1.314,2.23-1.1-.1.948-1.082,1.917-1.368,2.9" transform="translate(-6.982 -33.43)" fill="#ffd576"/>
            <path id="Trazado_1503" data-name="Trazado 1503" d="M76.887,153.645h0l-.046.008.019,0,.023,0" transform="translate(-24.227 -48.44)" fill="#ddcca6"/>
            <path id="Trazado_1504" data-name="Trazado 1504" d="M77.819,4.252a11.091,11.091,0,0,0-8.485,3.2,6.721,6.721,0,0,0-1.694,6.525,3.558,3.558,0,0,0,2.69,2.36.208.208,0,0,0,.111-.4c-2.855-.965-2.83-4.473-1.559-6.7,1.742-3.056,5.581-4.492,8.937-4.574a.2.2,0,0,0,0-.4" transform="translate(-21.236 -1.339)" fill="#ad6f32"/>
            <path id="Trazado_1505" data-name="Trazado 1505" d="M120.182,19.854a4.164,4.164,0,0,1,3.582,2.213,5.251,5.251,0,0,1,.016,4.555c-1.052,2.4-3.771,3.938-6.221,4.463-.148.032-.1.242.034.252a7.357,7.357,0,0,0,4.393-1.651A6.478,6.478,0,0,0,124.56,26.3a5.414,5.414,0,0,0-.634-4.705,4.443,4.443,0,0,0-3.744-1.921.092.092,0,0,0,0,.184" transform="translate(-37.034 -6.201)" fill="#ad6f32"/>
            <path id="Trazado_1506" data-name="Trazado 1506" d="M73.5,104.915a8.374,8.374,0,0,1-1.621,1.545,6.23,6.23,0,0,1-3.9,1.185,11.135,11.135,0,0,1-5.057-1.906c-.216-.132-.415.2-.24.358,2.083,1.923,4.975,3.133,7.8,2.2a8.273,8.273,0,0,0,3.748-2.7,8.158,8.158,0,0,1-.729-.683" transform="translate(-19.742 -33.077)" fill="#6d1e16"/>
            <path id="Trazado_1507" data-name="Trazado 1507" d="M54.08,79.493c-.177-1.785-2.216-3.12-3.724-3.78a9.866,9.866,0,0,0-5.037-.805c-3.178.347-6.467,1.96-8.052,4.857a5.609,5.609,0,0,0-.294,4.933.5.5,0,0,0,.984-.133c.031-3.165,2.483-5.7,5.374-6.658a9.091,9.091,0,0,1,4.9-.277,7.353,7.353,0,0,1,2.3.963,13.01,13.01,0,0,0,2.482,1.712.847.847,0,0,0,1.067-.813" transform="translate(-11.519 -23.599)" fill="#6d1e16"/>
            <path id="Trazado_1508" data-name="Trazado 1508" d="M105.2,86.019a1.8,1.8,0,0,0,1.725,1.26,1.876,1.876,0,0,0,1.126-.472c.305-.255.637-.833.328-1.2a.323.323,0,0,0-.31-.081.47.47,0,0,0-.282.2c-.043.054.06-.058-.021.024-.022.023-.042.047-.065.069-.1.1-.188.2-.287.292-.023.023-.049.042-.073.064s.058-.036-.014.01a1.655,1.655,0,0,1-.186.11c-.036.019-.076.034-.015.01-.031.012-.062.023-.092.033-.069.022-.139.036-.209.052l-.1.019c-.045.01.058,0-.023,0-.066,0-.132,0-.2,0-.112,0,.057.018-.054-.007-.033-.006-.065-.013-.1-.022a1.833,1.833,0,0,1-.189-.06,1.264,1.264,0,0,1-.565-.477.221.221,0,0,0-.4.168" transform="translate(-33.164 -26.962)" fill="#ad6f32"/>
            <path id="Trazado_1509" data-name="Trazado 1509" d="M91.151,80.778a6.781,6.781,0,1,0,5.885,7.305,6.636,6.636,0,0,0-5.885-7.305m4.31,7.168a1.342,1.342,0,0,1-.289.169c-.023.009-.048.015-.072.024,0,0,0,0-.012.008a1.574,1.574,0,0,1-.247.079c-.873.207-1.565-.517-1.982-1.183a4.575,4.575,0,0,1-.687-2.3,1.8,1.8,0,0,1,1.346-1.906c.945-.175,1.586.7,1.886,1.469.051.131.1.269.143.407a4.2,4.2,0,0,1,.5,1.828,1.919,1.919,0,0,1-.262,1.054,1.2,1.2,0,0,1-.318.351" transform="translate(-26.509 -25.46)" fill="#6d1e16"/>
            <path id="Trazado_1510" data-name="Trazado 1510" d="M49.029,79.4A6.781,6.781,0,1,0,54.915,86.7,6.636,6.636,0,0,0,49.029,79.4m2.924,6.723A2.225,2.225,0,0,1,49.738,84.4a3.166,3.166,0,0,1-.075-2c0-.017,0-.036,0-.053a1.167,1.167,0,0,1,.924-1.146,1.255,1.255,0,0,1,.466.016.779.779,0,0,1,.818.235.68.68,0,0,1,.129.231,3.975,3.975,0,0,1,1.446,2.063,1.916,1.916,0,0,1-.094,1.328,1.831,1.831,0,0,1-1.4,1.042" transform="translate(-13.228 -25.025)" fill="#6d1e16"/>
            <path id="Trazado_1511" data-name="Trazado 1511" d="M84.888,77.107a8.348,8.348,0,0,1,2.353-1.645,6.983,6.983,0,0,1,1.309-.494c.475-.128.915-.308,1.378-.469.145-.051.179-.3,0-.33a3.3,3.3,0,0,0-1.552.014,8.086,8.086,0,0,0-1.5.582,7.069,7.069,0,0,0-2.356,2.06c-.162.212.184.468.364.281" transform="translate(-26.635 -23.357)" fill="#6d1e16"/>
            <path id="Trazado_1512" data-name="Trazado 1512" d="M58.9,74.6a7.492,7.492,0,0,0-.7-1.237,4.2,4.2,0,0,0-1.117-1.028,4.424,4.424,0,0,0-1.332-.645,3.918,3.918,0,0,0-.686-.149,3.155,3.155,0,0,0-.742.061.2.2,0,0,0-.047.357c.188.084.363.19.548.281s.4.149.594.241a10.983,10.983,0,0,1,1.173.632c.368.234.676.533,1.026.79a4.256,4.256,0,0,1,.883.932.232.232,0,0,0,.4-.234" transform="translate(-17.083 -22.551)" fill="#6d1e16"/>
            <path id="Trazado_1513" data-name="Trazado 1513" d="M40.621,129.129c-.448-4.432-3.025-11.417,1.865-14.379a6.226,6.226,0,0,1,6.256-.131c1.934,1.077,3.724,3.372,3.669,5.678a4,4,0,0,1-2.1,3.238,4.11,4.11,0,0,1-3.815.246c-.184-.077-.375.184-.262.341,1.556,2.171,5.13.268,6.326-1.356,1.732-2.352.644-5.565-1.146-7.557a7.721,7.721,0,0,0-7.22-2.494,7.167,7.167,0,0,0-5.6,5.444,15.24,15.24,0,0,0-.105,5.488A16.149,16.149,0,0,0,40,129.3c.152.279.66.168.626-.17" transform="translate(-12.07 -35.492)" fill="#6d1e16"/>
            <path id="Trazado_1514" data-name="Trazado 1514" d="M86.286,127.682a3.4,3.4,0,0,1-3.415-3.341,5.632,5.632,0,0,1,2.755-4.623,7.9,7.9,0,0,1,2.747-1.268,3.814,3.814,0,0,1,2.972.865,6.215,6.215,0,0,1,2.887,4.1,20.292,20.292,0,0,1-.538,5.552c-.038.234.286.419.414.174a11.129,11.129,0,0,0,1.205-5.883,7.176,7.176,0,0,0-3.5-5.12,4.858,4.858,0,0,0-3.56-.92,8.6,8.6,0,0,0-3.335,1.489,6.7,6.7,0,0,0-3.207,5.732,3.925,3.925,0,0,0,4.653,3.845.307.307,0,0,0-.081-.6" transform="translate(-25.759 -36.937)" fill="#6d1e16"/>
            <path id="Trazado_1515" data-name="Trazado 1515" d="M82.506,24.07c3.846-3.668,9.085-1.781,13.107.541a48.7,48.7,0,0,1,11.377,9.067,39.583,39.583,0,0,1,7.922,12.486,41.663,41.663,0,0,1,3.155,13.577c.161,5.185-1.412,10.124-5.242,13.738-.116.109.054.273.173.173,7.9-6.64,6.646-17.78,3.441-26.513A44.623,44.623,0,0,0,96.408,24.086C92,21.579,86.276,19.62,82.178,23.742a.232.232,0,0,0,.328.328" transform="translate(-25.887 -6.733)" fill="#6d1e16"/>
            <path id="Trazado_1516" data-name="Trazado 1516" d="M73.932,14.293A15.21,15.21,0,0,1,87.332,1.3a17.659,17.659,0,0,1,17.344,9.866A10.453,10.453,0,0,1,103,22.763c-.286.316.094.9.481.624,3.2-2.264,4.083-6.69,3.2-10.34a17.063,17.063,0,0,0-6.8-9.517C93.594-1,84.811-1.411,78.727,3.692a14.871,14.871,0,0,0-5.346,10.6c-.016.359.512.344.55,0" transform="translate(-23.135 0)" fill="#6d1e16"/>
            <path id="Trazado_1517" data-name="Trazado 1517" d="M87.425,6.388a15.042,15.042,0,0,0-2.95,4.842c-.581,1.6-1.194,3.731-.04,5.213.1.128.289-.013.255-.149a8.561,8.561,0,0,1,.571-5.018A15.023,15.023,0,0,1,87.84,6.8c.239-.286-.161-.7-.415-.415" transform="translate(-26.415 -1.984)" fill="#ad6f32"/>
            <path id="Trazado_1518" data-name="Trazado 1518" d="M87.736,13.159a15.694,15.694,0,0,0-1.176,1.7q-.265.443-.5.9a4.737,4.737,0,0,0-.414.95.135.135,0,0,0,.246.1c.173-.282.288-.6.434-.9s.314-.612.487-.909a15.375,15.375,0,0,1,1.133-1.682c.092-.12-.116-.283-.211-.163" transform="translate(-27.001 -4.135)" fill="#ad6f32"/>
            <path id="Trazado_1519" data-name="Trazado 1519" d="M88.285,45.908c1.528,3.8,3.1,7.694,3.558,11.8a24.274,24.274,0,0,1-.18,6.158,34.946,34.946,0,0,0-.7,6.131.344.344,0,0,0,.672.091c.964-4,1.772-8.393,1.2-12.515-.577-4.177-2.343-8.062-4.075-11.866-.122-.267-.592-.075-.48.2" transform="translate(-27.829 -14.369)" fill="#ad6f32"/>
            <path id="Trazado_1520" data-name="Trazado 1520" d="M71.418,42.492a30.707,30.707,0,0,0-2.287,7.118,71.126,71.126,0,0,0-1.346,7.237c-.564,4.23-1.354,9.79,1.365,13.473a.1.1,0,0,0,.19-.08,35.144,35.144,0,0,1-1.02-6.578,42.335,42.335,0,0,1,.509-7.048c.325-2.325.743-4.642,1.26-6.932.528-2.342,1.35-4.651,1.732-7.02.037-.227-.277-.407-.4-.169" transform="translate(-21.195 -13.361)" fill="#ad6f32"/>
            <path id="Trazado_1521" data-name="Trazado 1521" d="M72.53,80.719a8.112,8.112,0,0,0,.253-1.665A11.165,11.165,0,0,0,72.7,77.37a.353.353,0,0,0-.342-.342.344.344,0,0,0-.342.342c.077.663.173,1.324.264,1.984l.134.964a1.882,1.882,0,0,0,.3.919.155.155,0,0,0,.279-.036,1.82,1.82,0,0,0,.064-.933q-.06-.5-.121-1c-.08-.663-.157-1.325-.251-1.986l-.66.181a10.7,10.7,0,0,1,.118,1.593c0,.538.011,1.072-.032,1.608-.02.241.364.29.42.057" transform="translate(-22.703 -24.285)" fill="#ad6f32"/>
            <path id="Trazado_1522" data-name="Trazado 1522" d="M74.142,83.5c1.111-.006,2.223,0,3.335-.044l1.668-.06a5.248,5.248,0,0,0,1.593-.236.2.2,0,0,0,0-.389,5.175,5.175,0,0,0-1.593-.09l-1.668.1c-1.114.065-2.224.172-3.335.27a.226.226,0,0,0,0,.452" transform="translate(-23.306 -26.062)" fill="#ad6f32"/>
            <path id="Trazado_1523" data-name="Trazado 1523" d="M86.607,75.6q-.01.809-.021,1.619l-.01.794a6.8,6.8,0,0,0,.05.826.153.153,0,0,0,.305,0,7.087,7.087,0,0,0,.053-.826c0-.264,0-.529-.008-.794q-.007-.809-.015-1.619a.177.177,0,0,0-.354,0" transform="translate(-27.295 -23.782)" fill="#ad6f32"/>
            <path id="Trazado_1524" data-name="Trazado 1524" d="M69.733,44.968a40.353,40.353,0,0,0-3.286,6.5,54.183,54.183,0,0,0-2.5,6.783c-1.291,4.415-2.2,9.592-.694,14.058a.141.141,0,0,0,.276-.038,61.718,61.718,0,0,1,.055-6.892A37.342,37.342,0,0,1,65,58.161c.649-2.218,1.479-4.373,2.343-6.514a68.7,68.7,0,0,0,2.67-6.56.154.154,0,0,0-.279-.118" transform="translate(-19.694 -14.155)" fill="#ad6f32"/>
            <path id="Trazado_1525" data-name="Trazado 1525" d="M56.952,40.1a17.171,17.171,0,0,0-1.764,2.945c-.589,1.094-1.127,2.216-1.637,3.348a36.271,36.271,0,0,0-2.332,6.59c-.975,4.173-1.187,9.151,1.161,12.923.117.188.44.069.368-.155a22.9,22.9,0,0,1-.475-13,39.781,39.781,0,0,1,2.305-6.369c.464-1.026.963-2.036,1.448-3.051a18.892,18.892,0,0,0,1.332-2.993c.062-.223-.246-.431-.408-.238" transform="translate(-15.93 -12.62)" fill="#ad6f32"/>
            <path id="Trazado_1526" data-name="Trazado 1526" d="M53.159,49.525C49.69,54.7,47.778,61.378,48.828,67.6c.023.137.243.1.24-.032a36.633,36.633,0,0,1,.75-9.3,31.282,31.282,0,0,1,3.446-8.686c.04-.068-.062-.127-.105-.062" transform="translate(-15.304 -15.605)" fill="#ad6f32"/>
            <path id="Trazado_1527" data-name="Trazado 1527" d="M35.622,31.861c-6.151,4.1-12,8.8-15.528,15.438-3.158,5.946-4.435,13.23-2.483,19.777.972,3.258,2.918,6.419,6.106,7.878a.294.294,0,0,0,.3-.507C18.86,70.6,17.394,64.126,17.98,57.986a29.946,29.946,0,0,1,8.793-17.9,65.343,65.343,0,0,1,9.22-7.594c.382-.267.027-.9-.37-.633" transform="translate(-5.26 -10.025)" fill="#6d1e16"/>
            <path id="Trazado_1528" data-name="Trazado 1528" d="M37.29,56.371a24.928,24.928,0,0,0-2.073,7.857,23.623,23.623,0,0,0-.023,4.216,10.147,10.147,0,0,0,.833,3.836.173.173,0,0,0,.319-.087,36.219,36.219,0,0,0-.379-3.889,29.262,29.262,0,0,1-.024-3.936,27.782,27.782,0,0,1,1.67-7.861c.068-.186-.242-.32-.324-.136" transform="translate(-11.07 -17.745)" fill="#ad6f32"/>
            <path id="Trazado_1529" data-name="Trazado 1529" d="M39.165,63.227a32.123,32.123,0,0,0-.779,5.116,17.756,17.756,0,0,0,.192,5.171.1.1,0,0,0,.2-.027c.025-1.683-.164-3.359-.1-5.046a31.87,31.87,0,0,1,.616-5.177c.017-.084-.11-.12-.129-.036" transform="translate(-12.072 -19.919)" fill="#ad6f32"/>
            <path id="Trazado_1530" data-name="Trazado 1530" d="M43.671,29.026A4.7,4.7,0,0,1,46.333,23.8l-.7-.539c-.192.989-1.091,1.88-.675,2.95a1.4,1.4,0,0,0,1.967.661c1.084-.448,2.056-1.23,3.121-1.745A24.97,24.97,0,0,1,53.6,23.755a28.668,28.668,0,0,1,7.683-1.28,15.882,15.882,0,0,1,7.878,1.807c.231.117.527-.2.3-.384a10.711,10.711,0,0,0-6.207-2.362,26.613,26.613,0,0,0-6.677.479,28.692,28.692,0,0,0-6.508,2.031,21.205,21.205,0,0,0-2.836,1.6c-.238.155-.642.511-.924.488l-.558-.493a1.2,1.2,0,0,1,.14-.551,11.253,11.253,0,0,0,.666-1.569c.07-.318-.225-.731-.587-.587-2.407.96-3.957,3.845-2.809,6.31.145.312.56.073.514-.216" transform="translate(-13.484 -6.775)" fill="#6d1e16"/>
            <path id="Trazado_1531" data-name="Trazado 1531" d="M102.793,73.265c-.142,1.133-.285,2.264-.4,3.4-.057.567-.122,1.133-.171,1.7-.023.261-.034.523-.048.785a2.13,2.13,0,0,0,.025.857.272.272,0,0,0,.491.064,1.949,1.949,0,0,0,.172-.789c.032-.261.066-.522.092-.785.056-.587.085-1.178.127-1.765.081-1.155.135-2.31.189-3.466.014-.314-.44-.3-.477,0" transform="translate(-32.203 -23.027)" fill="#ad6f32"/>
            <path id="Trazado_1532" data-name="Trazado 1532" d="M111.787,113.326h-.275l.3.127c-.379-.448-1.14-.062-1.589.073-.489.146-.982.286-1.478.405-.472.114-.939.241-1.412.351-.33.077-1.047.256-.926.729.117.455.9.429,1.257.407a9.149,9.149,0,0,0,1.53-.209,12.675,12.675,0,0,0,1.471-.443c.454-.168,1.309-.385,1.272-1.009l-.127.3c.066-.064.131-.128.2-.192a.321.321,0,0,0-.225-.542" transform="translate(-33.545 -35.702)" fill="#6d1e16"/>
            <path id="Trazado_1533" data-name="Trazado 1533" d="M105.88,83.56a12.416,12.416,0,0,0,.607,3.057,10.8,10.8,0,0,0,.611,1.425,4.9,4.9,0,0,0,.4.657,2.809,2.809,0,0,0,.577.559c.151.119.41.015.347-.2a6.829,6.829,0,0,0-.528-1.311,13.5,13.5,0,0,1-.6-1.349,11.69,11.69,0,0,1-.724-2.836c-.052-.426-.717-.447-.684,0" transform="translate(-33.381 -26.241)" fill="#ad6f32"/>
            <path id="Trazado_1534" data-name="Trazado 1534" d="M109.141,87.137q.24.718.546,1.41.149.339.315.67a1.94,1.94,0,0,0,.188.336c.079.1.159.2.24.3a.191.191,0,0,0,.316-.184c-.045-.12-.085-.242-.131-.361a2.835,2.835,0,0,0-.167-.32q-.172-.313-.327-.635-.316-.649-.568-1.327c-.094-.254-.5-.151-.412.114" transform="translate(-34.406 -27.39)" fill="#ad6f32"/>
            <path id="Trazado_1535" data-name="Trazado 1535" d="M103.756,113.63a20.385,20.385,0,0,1-3.5,2.474c-.622.338-1.267.633-1.918.918q-.438.191-.885.364a2.258,2.258,0,0,0-.779.453.4.4,0,0,0,.2.687,2.029,2.029,0,0,0,1.02-.075c.342-.1.676-.233,1.008-.364a15.3,15.3,0,0,0,2.036-1,9.055,9.055,0,0,0,3.45-3c.214-.374-.292-.737-.628-.45" transform="translate(-30.44 -35.792)" fill="#6d1e16"/>
            <path id="Trazado_1536" data-name="Trazado 1536" d="M60.055,124.019A21.074,21.074,0,0,0,69.1,125.51c2.03-.118,4.745-.332,6.409-1.654a.222.222,0,0,0-.155-.376,25.711,25.711,0,0,0-2.7.626,20.6,20.6,0,0,1-3.674.534,21.973,21.973,0,0,1-8.748-1.258c-.4-.147-.562.481-.175.636" transform="translate(-18.864 -38.893)" fill="#6d1e16"/>
            <path id="Trazado_1537" data-name="Trazado 1537" d="M58.78,127.247c.551-.27,1.117-.519,1.682-.755.287-.119.58-.223.866-.344a2.911,2.911,0,0,0,.935-.456.376.376,0,0,0-.164-.623,1.21,1.21,0,0,0-.574.038q-.239.067-.476.141a8.054,8.054,0,0,0-.947.388,7.349,7.349,0,0,0-.856.438q-.421.267-.823.561a.355.355,0,0,0,.357.612" transform="translate(-18.368 -39.425)" fill="#6d1e16"/>
            <path id="Trazado_1538" data-name="Trazado 1538" d="M77.676,125.577a8.046,8.046,0,0,1,1.337.412c.194.079.386.161.58.239a2.721,2.721,0,0,0,.8.191.37.37,0,0,0,.353-.269.375.375,0,0,0-.168-.414,7.284,7.284,0,0,0-1.339-.573,8.057,8.057,0,0,0-1.347-.376.409.409,0,0,0-.218.789" transform="translate(-24.396 -39.34)" fill="#6d1e16"/>
            <path id="Trazado_1539" data-name="Trazado 1539" d="M92.815,48.064A22.881,22.881,0,0,1,94.8,69.687c-.029.071.087.118.123.052,3.713-6.851,2.61-15.612-2.03-21.719-.033-.042-.106,0-.074.043" transform="translate(-29.26 -15.134)" fill="#ad6f32"/>
            <path id="Trazado_1540" data-name="Trazado 1540" d="M40.4,132.234a14.325,14.325,0,0,0,1.814,6.962,7.865,7.865,0,0,0,4.333,4.209,5.673,5.673,0,0,0,5.376-1.274A6.321,6.321,0,0,0,53.94,136.6a8.016,8.016,0,0,0-1.232-3.438c-.729-1.116-1.772-1.984-2.466-3.124-.392-.644-1.406-.055-1.013.592,1.021,1.676,2.642,2.842,3.253,4.774a5.608,5.608,0,0,1-.795,5.231,4.641,4.641,0,0,1-4.462,1.723,6.66,6.66,0,0,1-3.939-3.454,18.807,18.807,0,0,1-1.445-3.242c-.4-1.146-.629-2.338-1.022-3.484a.215.215,0,0,0-.42.057" transform="translate(-12.732 -40.909)" fill="#6d1e16"/>
            <path id="Trazado_1541" data-name="Trazado 1541" d="M85.346,132.553a6.648,6.648,0,0,0-1.432,2.735,11.176,11.176,0,0,0-.576,3.268,6.244,6.244,0,0,0,2.305,5.183,5.278,5.278,0,0,0,8.317-3,20.141,20.141,0,0,0,.69-3.991,42.3,42.3,0,0,0,.342-4.788.19.19,0,0,0-.372-.05c-.614,2.276-.771,4.622-1.259,6.923-.364,1.715-1.023,3.557-2.683,4.4a4.254,4.254,0,0,1-3.919-.123,4.854,4.854,0,0,1-2.28-4.082,10.028,10.028,0,0,1,.3-3.166c.266-1.039.79-1.987,1.063-3.015a.3.3,0,0,0-.5-.291" transform="translate(-26.274 -41.545)" fill="#6d1e16"/>
            <path id="Trazado_1542" data-name="Trazado 1542" d="M63,125.407c1.358,2.239,3.668,4.006,6.4,3.805a5.6,5.6,0,0,0,5-4.277.223.223,0,0,0-.43-.118,5.454,5.454,0,0,1-4.679,3.861,6.869,6.869,0,0,1-5.969-3.459c-.13-.2-.447-.018-.322.188" transform="translate(-19.855 -39.303)" fill="#6d1e16"/>
            <path id="Trazado_1543" data-name="Trazado 1543" d="M34.952,81.839a54.515,54.515,0,0,0-.449,7.978c.029,1.3.086,2.609.214,3.908a10.311,10.311,0,0,0,.77,3.58.278.278,0,0,0,.5-.066,14.312,14.312,0,0,0-.064-3.665c-.105-1.3-.212-2.6-.271-3.909-.117-2.6-.174-5.222-.1-7.827.011-.4-.553-.371-.6,0" transform="translate(-10.874 -25.711)" fill="#6d1e16"/>
            <path id="Trazado_1544" data-name="Trazado 1544" d="M30.988,91.268a5.136,5.136,0,0,0-4.933,3.283,5.256,5.256,0,0,0,1.5,6.151,5.488,5.488,0,0,0,1.717.972,2.325,2.325,0,0,0,1.828,0,.216.216,0,0,0,.043-.336,8.028,8.028,0,0,0-1.6-.679,5.14,5.14,0,0,1-1.552-1.1,4.288,4.288,0,0,1-1.2-3.139,4.8,4.8,0,0,1,4.2-4.433.361.361,0,0,0,0-.721" transform="translate(-8.08 -28.771)" fill="#6d1e16"/>
            <path id="Trazado_1545" data-name="Trazado 1545" d="M36.392,83.6a.994.994,0,0,1-.282.314c-.1.069-.142.11-.216.157-.035.023-.071.043-.109.063-.011.005-.116.053-.055.027a1.945,1.945,0,0,1-.241.071c-.114.029.066,0-.051.008-.042,0-.083,0-.124,0s-.084,0-.125-.008c.1.011-.022-.008-.042-.012s-.148-.046-.1-.028-.079-.041-.094-.049a.478.478,0,0,0-.65.649,14.356,14.356,0,0,0,1.109,1.749,4.332,4.332,0,0,0,.655.809.864.864,0,0,0,.6.246.607.607,0,0,0,.526-.314.4.4,0,0,0-.061-.473,3.473,3.473,0,0,1-.321-.367,3.616,3.616,0,0,1-.247-.459c-.146-.3-.292-.6-.412-.9l-.729.424a3.615,3.615,0,0,1,.446.515,4.825,4.825,0,0,0,.47.633A.4.4,0,0,0,37,86.267a2.7,2.7,0,0,0-.965-1.378.438.438,0,0,0-.685.528,5.715,5.715,0,0,0,.535.962c.107.151.229.292.333.444s.192.311.3.462l.338-.588c.047,0,.139.075.068.01-.037-.034-.075-.066-.112-.1s-.045-.052-.01-.01l-.036-.051c-.062-.089-.136-.172-.2-.257-.164-.2-.29-.371-.451-.59q-.5-.685-.991-1.384l-.649.65a1.8,1.8,0,0,0,1.576-.052,1.344,1.344,0,0,0,.766-1.2.228.228,0,0,0-.421-.114" transform="translate(-10.796 -26.323)" fill="#6d1e16"/>
            <path id="Trazado_1546" data-name="Trazado 1546" d="M36.482,69.708l.21-.119-.365.008c.477.167.794-.153,1.132-.445a14.182,14.182,0,0,1,1.288-.989,7.921,7.921,0,0,1,2.8-1.141,13.876,13.876,0,0,1,3.265-.3c.6.012,1.206.037,1.81.054a2.994,2.994,0,0,0,.9-.018,3.529,3.529,0,0,1,.661-.2c.433-.079.678-.729.242-.989-.251-.151-.466-.376-.716-.512a3.536,3.536,0,0,0-.857-.246,10.552,10.552,0,0,0-1.786-.27,12.486,12.486,0,0,0-3.741.292c-2.05.507-4.567,1.819-5.33,3.927a.667.667,0,0,0,.1.658l.036.041-.1-.355c-.008.116-.014.232-.021.349a.3.3,0,0,0,.477.261" transform="translate(-11.333 -20.337)" fill="#6d1e16"/>
            <path id="Trazado_1547" data-name="Trazado 1547" d="M89.888,69.418c.935.086,1.856.123,2.794.171a17.255,17.255,0,0,1,2.8.317,7.128,7.128,0,0,1,2.143.851,6.337,6.337,0,0,1,1.157.825c.166.16.318.334.488.492a7.783,7.783,0,0,0,.675.413.691.691,0,0,0,1.1-.637,1.219,1.219,0,0,1-.035-.345l-.055.439a1.9,1.9,0,0,0-.51-1.769,7.477,7.477,0,0,0-1.126-1.2,7.346,7.346,0,0,0-3.138-1.345,11.689,11.689,0,0,0-3.258-.2,13.219,13.219,0,0,0-3.216.652.7.7,0,0,0,.185,1.334" transform="translate(-28.149 -21.249)" fill="#6d1e16"/>
            <path id="Trazado_1548" data-name="Trazado 1548" d="M19.109,54.22c-3.776,5.009-7.463,10.634-7.988,17.058a11.949,11.949,0,0,0,1.932,8.152,7.088,7.088,0,0,0,6.582,2.95c.19-.028.146-.349-.046-.336a7.363,7.363,0,0,1-6.823-3.918,13.354,13.354,0,0,1-1.13-8.63c.917-5.688,4.338-10.6,7.589-15.208.051-.071-.065-.136-.116-.068" transform="translate(-3.488 -17.085)" fill="#ad6f32"/>
            <path id="Trazado_1549" data-name="Trazado 1549" d="M32.441,106.145a9.722,9.722,0,0,1-4.4,5.331c-1.035.555-2.466,1.007-3.566.373a2,2,0,0,1-.9-1.114,1.645,1.645,0,0,1,.179-1.377c.085-.17-.1-.414-.284-.284a1.952,1.952,0,0,0-.407,2.3,2.69,2.69,0,0,0,2.3,1.637c2.253.249,4.654-1.481,5.9-3.242a7.965,7.965,0,0,0,1.424-3.557.128.128,0,0,0-.247-.068" transform="translate(-7.213 -33.436)" fill="#6d1e16"/>
            <path id="Trazado_1550" data-name="Trazado 1550" d="M32.309,110.3c-2.093,2.125-5.309,4.271-8.319,2.567a2.827,2.827,0,0,1-1.518-1.934,4.168,4.168,0,0,1,.422-2.346,5.759,5.759,0,0,1,3.235-2.89.2.2,0,0,0-.107-.389c-2.542.525-4.842,3.343-4.287,6.012a4.046,4.046,0,0,0,3.006,2.735,6.172,6.172,0,0,0,4.126-.367,7.823,7.823,0,0,0,3.567-3.291.08.08,0,0,0-.125-.1" transform="translate(-6.826 -33.199)" fill="#6d1e16"/>
            <path id="Trazado_1551" data-name="Trazado 1551" d="M26.792,105.356a4.327,4.327,0,0,0,.407.911l.172-.422a3.542,3.542,0,0,0-1.548,1.067,5.878,5.878,0,0,0-1.044,1.688c-.336.794-1.227,3.047.255,3.215.079.009.107-.113.04-.148-.6-.315-.385-1.17-.234-1.683a7.766,7.766,0,0,1,.6-1.482,5.667,5.667,0,0,1,.874-1.234,5.262,5.262,0,0,1,1.283-.9.29.29,0,0,0,0-.5,2.4,2.4,0,0,1-.666-.574c-.046-.06-.164-.029-.134.057" transform="translate(-7.631 -33.189)" fill="#6d1e16"/>
            <path id="Trazado_1552" data-name="Trazado 1552" d="M109.7,93.659a10.83,10.83,0,0,0,3.476,11.873c2.064,1.669,5.079,2.093,6.777,4.2a3.212,3.212,0,0,1,.151,3.991,10.666,10.666,0,0,1-3.51,2.777c-.062.04-.023.147.052.123,2.158-.668,4.783-2.037,5.006-4.569.239-2.706-2.311-4.359-4.436-5.356-2.6-1.22-4.734-2.633-6.1-5.247a11.886,11.886,0,0,1-1.095-7.707.165.165,0,0,0-.318-.088" transform="translate(-34.399 -29.492)" fill="#6d1e16"/>
            <path id="Trazado_1553" data-name="Trazado 1553" d="M107.51,89.66a17.663,17.663,0,0,0-1.658,5,13.2,13.2,0,0,0-.207,4.323,9.392,9.392,0,0,0,4.7,6.744c2.522,1.569,5.42,2.394,7.949,3.947.9.555,4.288,2.792,2.631,4.012a9.316,9.316,0,0,1-5.226,1.747l.281.214c-.034-.225-.066-.449-.1-.674-.06-.4-.726-.242-.624.173l.161.657a.3.3,0,0,0,.359.2,16.2,16.2,0,0,0,4.919-1.377c1.083-.527,1.932-1.21,1.382-2.5a7.638,7.638,0,0,0-2.963-2.949,28.721,28.721,0,0,0-4.28-2.174c-2.881-1.265-6.132-2.679-7.608-5.657a10.219,10.219,0,0,1-.827-5.489c.2-2.1,1.058-4.028,1.363-6.091.022-.146-.173-.259-.257-.108" transform="translate(-33.277 -28.245)" fill="#ad6f32"/>
            <path id="Trazado_1554" data-name="Trazado 1554" d="M126.243,122.191a7.292,7.292,0,0,1,.606.567,2.913,2.913,0,0,0,.591.577.074.074,0,0,0,.107-.083.977.977,0,0,0-.214-.37c-.093-.1-.19-.206-.289-.3a7.167,7.167,0,0,0-.629-.559.125.125,0,0,0-.173,0,.123.123,0,0,0,0,.173" transform="translate(-39.79 -38.458)" fill="#6d1e16"/>
            <path id="Trazado_1555" data-name="Trazado 1555" d="M126.055,123.166l.29.385.068.091a.731.731,0,0,0,.1.1l.09.081a.45.45,0,0,0,.108.084.087.087,0,0,0,.126-.1,2.447,2.447,0,0,0-.2-.334c-.027-.031-.055-.06-.082-.089l-.327-.357a.11.11,0,0,0-.173.134" transform="translate(-39.737 -38.779)" fill="#6d1e16"/>
            <path id="Trazado_1556" data-name="Trazado 1556" d="M130.77,63.549c.26,2.227.524,4.474.708,6.708a26.728,26.728,0,0,1-.133,6.643,17.134,17.134,0,0,1-1.632,5.072,22.521,22.521,0,0,1-3.365,4.406.343.343,0,0,0,.414.537c3.385-1.545,5.159-5.958,5.714-9.394a25.237,25.237,0,0,0,.11-6.7,47.212,47.212,0,0,0-1.541-7.308c-.04-.147-.294-.124-.276.038" transform="translate(-39.804 -19.993)" fill="#6d1e16"/>
            <path id="Trazado_1557" data-name="Trazado 1557" d="M28.208,125.922a8.779,8.779,0,0,0,1.139-3.635,5.192,5.192,0,0,0,3.188,2.975,3.007,3.007,0,0,0-1.55,2.128,7.944,7.944,0,0,0-2.277-.943" transform="translate(-8.893 -38.554)" fill="#ff0"/>
            <path id="Trazado_1558" data-name="Trazado 1558" d="M28.319,125.873a8.077,8.077,0,0,0,1.323-3.771l-.818.11A5.57,5.57,0,0,0,32.3,125.5q-.052-.4-.1-.794a3.611,3.611,0,0,0-1.1,1.043,4.552,4.552,0,0,0-.588,1.361l.616-.162a4.165,4.165,0,0,0-1.228-.735,2.139,2.139,0,0,0-1.4-.277.346.346,0,0,0-.151.572,3.329,3.329,0,0,0,1.211.548c.409.156.8.365,1.211.508a.372.372,0,0,0,.466-.355,2.344,2.344,0,0,1,1.4-1.752.439.439,0,0,0-.1-.794,4.9,4.9,0,0,1-2.9-2.668.418.418,0,0,0-.817.111,10.136,10.136,0,0,1-.955,3.5.269.269,0,0,0,.464.271" transform="translate(-8.772 -38.369)" fill="#6d1e16"/>
            <path id="Trazado_1559" data-name="Trazado 1559" d="M49.353,148.926c-.392.29-.8.579-1.163.907s-.71.709-1.048,1.075-.676.748-.983,1.148a7.069,7.069,0,0,0-.429.589c-.066.107-.139.216-.2.329a2.365,2.365,0,0,0-.11.383c-.075.245.233.512.457.351a3.294,3.294,0,0,0,.329-.214c.083-.076.156-.169.233-.251.157-.168.3-.351.444-.528.313-.375.614-.759.932-1.13s.632-.709.955-1.058.63-.749.955-1.113c.221-.248-.077-.712-.377-.49" transform="translate(-14.318 -46.934)" fill="#6d1e16"/>
            <path id="Trazado_1560" data-name="Trazado 1560" d="M91.364,150.251a7.464,7.464,0,0,0,1.084,1.806c.418.594.839,1.18,1.286,1.752.239.306.54.733.985.63a.515.515,0,0,0,.368-.5,1.245,1.245,0,0,0-.265-.633c-.409-.6-.867-1.161-1.32-1.726l-.714-.891a4.3,4.3,0,0,0-.885-.853.37.37,0,0,0-.538.414" transform="translate(-28.8 -47.223)" fill="#6d1e16"/>
            <path id="Trazado_1561" data-name="Trazado 1561" d="M83.377,82.625a7.768,7.768,0,0,1,9.162-3.263,7.329,7.329,0,0,1,3.693,3.569,8.019,8.019,0,0,1,.742,2.475,9.419,9.419,0,0,0,.291,2.735.743.743,0,0,0,1.152.149c.812-.657.816-2.234.737-3.179a9.453,9.453,0,0,0-.948-3.334,9.142,9.142,0,0,0-4.926-4.551,9.034,9.034,0,0,0-11.169,4.658c-.381.842.78,1.573,1.266.74" transform="translate(-25.864 -24.178)" fill="#6d1e16"/>
            <g id="Grupo_11007" data-name="Grupo 11007" transform="translate(25.737 53.009)" opacity="0.2" style="mix-blend-mode: multiply;isolation: isolate">
              <g id="Grupo_11006" data-name="Grupo 11006">
                <g id="Grupo_11005" data-name="Grupo 11005" clip-path="url(#clip-path-3)">
                  <path id="Trazado_1562" data-name="Trazado 1562" d="M37.944,83.908a6.591,6.591,0,0,0,.7,4.692A9.936,9.936,0,0,1,41.6,82.407a9.3,9.3,0,0,1,6.327-2.594c.5,0,1.009.039,1.513.08A6.491,6.491,0,0,1,53.2,81.007a7.947,7.947,0,0,0-9.923-2.89,10.658,10.658,0,0,0-4.223,3.734,7.455,7.455,0,0,0-1.465,3.528" transform="translate(-37.588 -77.416)" fill="#6d1e16"/>
                </g>
              </g>
            </g>
            <g id="Grupo_11010" data-name="Grupo 11010" transform="translate(56.792 53.512)" opacity="0.2" style="mix-blend-mode: multiply;isolation: isolate">
              <g id="Grupo_11009" data-name="Grupo 11009">
                <g id="Grupo_11008" data-name="Grupo 11008" clip-path="url(#clip-path-4)">
                  <path id="Trazado_1563" data-name="Trazado 1563" d="M82.941,84.624c1.091-1.552,3.105-2.166,5-2.312a8.093,8.093,0,0,1,1.6.012,7.154,7.154,0,0,1,4.544,2.742,15.916,15.916,0,0,1,2.463,4.82c1.367-1.68,1.453-4.081,1-6.2a6.6,6.6,0,0,0-1.464-3.2,6.155,6.155,0,0,0-1.54-1.143c-2.494-1.381-5.743-1.723-8.14-.18a8.912,8.912,0,0,0-2.535,2.54,3.9,3.9,0,0,0-.459,1.072,8.88,8.88,0,0,1-.469,1.845" transform="translate(-82.941 -78.151)" fill="#6d1e16"/>
                </g>
              </g>
            </g>
            <path id="Trazado_1564" data-name="Trazado 1564" d="M32.762,106.3a1.028,1.028,0,0,0,0-2.054,1.028,1.028,0,0,0,0,2.054" transform="translate(-10.016 -32.865)" fill="#ffece1"/>
            <path id="Trazado_1565" data-name="Trazado 1565" d="M39.054,110.924c-1.5-1.185-1.775-3.5-1.943-5.272a25,25,0,0,0-.934-6.019c-.435-1.239-2.421-.706-1.98.546a28.564,28.564,0,0,1,.94,6.233c.246,2.066.732,4.6,2.465,5.965a1.059,1.059,0,0,0,1.452,0,1.034,1.034,0,0,0,0-1.452" transform="translate(-10.761 -31.19)" fill="#6d1e16"/>
            <path id="Trazado_1566" data-name="Trazado 1566" d="M31.231,106.43a10.3,10.3,0,0,0,3.274.494,1.027,1.027,0,0,0,0-2.054,9.691,9.691,0,0,1-1.352-.08l.273.036a9.443,9.443,0,0,1-1.649-.377,1.036,1.036,0,0,0-1.264.718,1.05,1.05,0,0,0,.718,1.263" transform="translate(-9.611 -32.917)" fill="#6d1e16"/>
            <path id="Trazado_1567" data-name="Trazado 1567" d="M32.406,92.357h1.56a1.059,1.059,0,0,0,.726-.3,1.028,1.028,0,0,0,0-1.453,1.07,1.07,0,0,0-.726-.3h-1.56a1.059,1.059,0,0,0-.726.3,1.028,1.028,0,0,0,0,1.453,1.07,1.07,0,0,0,.726.3" transform="translate(-9.893 -28.47)" fill="#6d1e16"/>
            <path id="Trazado_1568" data-name="Trazado 1568" d="M106.574,114.461a21.458,21.458,0,0,0,2.238-2.715,1.027,1.027,0,0,0-1.16-1.509,1.156,1.156,0,0,0-.614.472q-.275.4-.57.778l.161-.208a19.982,19.982,0,0,1-1.506,1.73,1.063,1.063,0,0,0-.3.726,1.027,1.027,0,0,0,1.754.726" transform="translate(-33.047 -34.743)" fill="#6d1e16"/>
            <path id="Trazado_1569" data-name="Trazado 1569" d="M113.554,104.615a4.713,4.713,0,0,0,2.748-.974c.855-.593,1.674-1.243,2.49-1.887q2.423-1.914,4.681-4.024c.969-.9-.486-2.354-1.452-1.452q-2.071,1.93-4.278,3.7-1.035.83-2.1,1.617a3.6,3.6,0,0,1-2.086.963,1.028,1.028,0,0,0,0,2.054" transform="translate(-35.488 -30.264)" fill="#6d1e16"/>
          </g>
        </g>
      </g>
    </g>
    <g id="Grupo_11016" data-name="Grupo 11016" transform="translate(11 131.578)" style="mix-blend-mode: normal;isolation: isolate">
      <g id="Grupo_11015" data-name="Grupo 11015" transform="translate(0 0)" clip-path="url(#clip-path-5)">
        <path id="Trazado_1570" data-name="Trazado 1570" d="M28.02,29.972a30.371,30.371,0,0,1,2.467-2.322q1.524-1.307,3.157-2.613t3.229-2.467a29.393,29.393,0,0,1,2.758-1.814,8.146,8.146,0,0,1,.871-.508l.653-.218a8.176,8.176,0,0,0,.871-.508,4.724,4.724,0,0,1,1.959-.363,3.039,3.039,0,0,1,1.706.617,2.567,2.567,0,0,1,.907,1.488,1.406,1.406,0,0,1,.072.435,2.8,2.8,0,0,1-.4,1.415,2.519,2.519,0,0,1-1.343,1.053A18.231,18.231,0,0,0,41.41,25.98q-2.069,1.307-4.209,2.94a50.349,50.349,0,0,0-3.991,3.374,24.129,24.129,0,0,0-2.867,3.12,3.761,3.761,0,0,0-.8,2.031c0,.049.011.231.037.545a4.309,4.309,0,0,0,.835,1.632A5.829,5.829,0,0,0,31.83,41a8.316,8.316,0,0,0,1.778.944q.871.435,2.54,1.161t3.484,1.451q1.812.727,3.483,1.379t2.612,1.016a6.966,6.966,0,0,0,.762.254,3.049,3.049,0,0,1,.763.326,2.366,2.366,0,0,1,1.088,1.088,2.825,2.825,0,0,1,.291,1.089,1.946,1.946,0,0,1-.145.725,2.324,2.324,0,0,1-2.467,1.887h-.291c-.29-.047-.58-.108-.871-.181s-.581-.157-.871-.254q-1.524-.579-3.774-1.451T35.568,48.55q-2.4-1.015-4.608-2.141a25.858,25.858,0,0,1-3.593-2.141,18.019,18.019,0,0,0-.181,1.887q-.108,1.6-.218,3.411t-.181,3.374q-.074,1.561-.073,1.851a4.275,4.275,0,0,1-.834,2.358,2.2,2.2,0,0,1-1.778.834h-.145A2.364,2.364,0,0,1,22.07,57a4.079,4.079,0,0,1-.654-2.431q.072-1.525.182-4.355t.254-5.878q.144-3.048.254-5.878t.181-4.355q.144-6.749.435-13.426T23.3,7.257q.072-1.089.145-1.85c.048-.508.073-.908.073-1.2a11.382,11.382,0,0,0-.073-1.234V2.758A2.75,2.75,0,0,1,24.1.907,2.674,2.674,0,0,1,25.843,0h.291A2.537,2.537,0,0,1,27.8.69a2.631,2.631,0,0,1,.871,1.923q.072,1.017.072,2.032,0,.509-.036,1.56t-.182,2.576q-.217,5.008-.435,10.051t-.435,10.051v.472a.987.987,0,0,0,.363.616" transform="translate(-5.452 0)" fill="#c0a7ce"/>
        <path id="Trazado_1571" data-name="Trazado 1571" d="M73.517,61.245a8.15,8.15,0,0,0-.508.871l-.363.58a8.154,8.154,0,0,1-.508.871,22.049,22.049,0,0,1-2.5,3.157A4.925,4.925,0,0,1,65.9,68.211a5.079,5.079,0,0,1-4.572-2.975,9.472,9.472,0,0,1-.98-2.975,18.7,18.7,0,0,1-.181-2.4q0-.654.072-1.379a24.7,24.7,0,0,1,.835-4.1A24.416,24.416,0,0,1,62.7,50.214a19.514,19.514,0,0,1,2.432-3.738,13.19,13.19,0,0,1,3.157-2.794,6.122,6.122,0,0,1,3.12-.944,5.247,5.247,0,0,1,3.7,1.6,1.987,1.987,0,0,0,.545.435.878.878,0,0,0,.326.072,1.787,1.787,0,0,0,.653-.145,3.894,3.894,0,0,1,1.234-.218,2.2,2.2,0,0,1,1.851.8,2.9,2.9,0,0,1,.616,1.815,3.413,3.413,0,0,1-.073.653q-.217,1.524-.435,3.047l-.145.871q-.218,1.524-.435,3.047a26.581,26.581,0,0,0-.291,3.919q0,.8.109,2.577a18.739,18.739,0,0,0,.98,4.463l.217,1.088V67.2a2.336,2.336,0,0,1-1.6,2.322,2.76,2.76,0,0,1-.871.145,3.726,3.726,0,0,1-.979-.181,2.425,2.425,0,0,1-1.2-.98,3.938,3.938,0,0,1-.545-1.053q-.181-.543-.326-1.124-.365-1.234-.617-2.5t-.617-2.576m-7.474,1.378a.994.994,0,0,0,.581-.326,2.742,2.742,0,0,0,.363-.545,30.165,30.165,0,0,0,2.866-4.9q1.2-2.575,2.431-5.117a1.657,1.657,0,0,0,.218-.871,1.961,1.961,0,0,0-.145-.726q-.146-.507-.29-1.088a.937.937,0,0,0-.726-.726,1.219,1.219,0,0,0-.363-.072.815.815,0,0,0-.653.4,6.433,6.433,0,0,1-.653.762,15.61,15.61,0,0,0-3.12,5.043,17.526,17.526,0,0,0-1.089,5.769v.581q0,.292.037.8a1.628,1.628,0,0,0,.544,1.016" transform="translate(-15.317 -10.881)" fill="#c0a7ce"/>
        <path id="Trazado_1572" data-name="Trazado 1572" d="M106.622,46.222q.508-.436.944-.871a7.41,7.41,0,0,1,.943-.8,5.789,5.789,0,0,1,3.484-1.307,3.715,3.715,0,0,1,2.975,1.27,8,8,0,0,1,1.6,3.048,18.658,18.658,0,0,1,.653,3.7q.144,1.923.145,3.229a127.617,127.617,0,0,1-.652,12.845v.472a1.508,1.508,0,0,1-.073.472,3.274,3.274,0,0,1-1.161,1.669,2.4,2.4,0,0,1-1.814.435,2.47,2.47,0,0,1-1.632-.907,2.794,2.794,0,0,1-.544-2q.144-2.177.326-4.354t.182-4.355q.07-2.249.072-4.5a28.273,28.273,0,0,0-.362-4.5,4.082,4.082,0,0,0-.218-.508.749.749,0,0,0-.69.291q-.182.29-.326.58a10.447,10.447,0,0,0-1.161,2.068q-.435,1.053-.8,2.214-.87,2.323-2.9,2.25-2.105-.145-2.613-2.613-.217-.941-.4-1.851t-.4-1.85q-.145-.58-.253-1.088a1.746,1.746,0,0,0-.617-.944,3.921,3.921,0,0,0-1.125,1.161,8.015,8.015,0,0,0-.69,1.451,31.582,31.582,0,0,0-1.778,7.547,19.586,19.586,0,0,0,.763,7.693,3.243,3.243,0,0,1,0,2.14,2.2,2.2,0,0,1-1.307,1.27,2.838,2.838,0,0,1-2,0,2.916,2.916,0,0,1-1.56-1.451,9.577,9.577,0,0,1-.8-2.576q-.218-1.342-.363-2.722a37.584,37.584,0,0,1,.254-6.422,29.309,29.309,0,0,1,1.487-6.2,22.321,22.321,0,0,1,1.089-2.54,11.454,11.454,0,0,1,1.6-2.4A9.3,9.3,0,0,1,99,43.464a4.836,4.836,0,0,1,2.613-.725,4.694,4.694,0,0,1,3.919,2.032,3.68,3.68,0,0,1,.472.762,1.651,1.651,0,0,0,.616.69" transform="translate(-23.532 -10.881)" fill="#c0a7ce"/>
        <path id="Trazado_1573" data-name="Trazado 1573" d="M167.5,32.244q-2.033.073-3.846.253a19.323,19.323,0,0,1-3.556.037h-1.088a8.775,8.775,0,0,1-1.088-.072,2.657,2.657,0,0,0-1.234.072c-.145.1-.291.484-.435,1.161q-.365,1.741-1.016,4.753t-1.633,6.459q-.979,3.447-2.322,6.967a41.905,41.905,0,0,1-3.011,6.349,19.319,19.319,0,0,1-3.7,4.645,6.606,6.606,0,0,1-4.5,1.814,4.783,4.783,0,0,1-3.084-1.016,8.308,8.308,0,0,1-2.105-2.54,13.676,13.676,0,0,1-1.269-3.266,22.346,22.346,0,0,1-.581-3.193,51.593,51.593,0,0,1,.8-13.571c.1-.291.182-.581.254-.871a6.025,6.025,0,0,1,.254-.8,2.6,2.6,0,0,1,1.306-1.415,2.257,2.257,0,0,1,1.814-.037,2.567,2.567,0,0,1,1.524,1.088,2.484,2.484,0,0,1,.29,1.887,61.806,61.806,0,0,0-1.088,6.967,43.537,43.537,0,0,0-.072,4.355,21.129,21.129,0,0,0,.581,4.282q.144.8.363,1.6a1.359,1.359,0,0,0,1.015,1.015,1.257,1.257,0,0,0,1.416-.508q.545-.725,1.053-1.306a24.012,24.012,0,0,0,1.814-2.867,25.942,25.942,0,0,0,1.378-3.011,69.893,69.893,0,0,0,3.085-9.217q1.2-4.642,2.286-9.434.217-.941.072-1.161a2.969,2.969,0,0,0-1.161-.581q-.509-.218-1.016-.4a4.281,4.281,0,0,1-.944-.472,2.812,2.812,0,0,1-1.161-1.416,2.316,2.316,0,0,1,.072-1.706,2.56,2.56,0,0,1,1.161-1.306,2.85,2.85,0,0,1,1.814-.291,44.055,44.055,0,0,0,5.08,1.343,27.058,27.058,0,0,0,5.225.471q1.45,0,2.795-.072t2.794-.218q.87-.072,1.778-.181t1.778-.182a3.8,3.8,0,0,1,3.447,1.089,3.742,3.742,0,0,1,.545,3.556q-.365,1.236-.8,2.4t-.944,2.322q-1.887,4.79-3.629,9.506a80.452,80.452,0,0,0-2.9,9.725,44.2,44.2,0,0,0-1.053,5.843,37.733,37.733,0,0,0-.181,5.986,23.149,23.149,0,0,0,.254,2.358,11.855,11.855,0,0,0,.616,2.285,8.143,8.143,0,0,0,3.483,4.246,7.844,7.844,0,0,0,5.443.907,12.331,12.331,0,0,0,2.431-.544q1.2-.4,2.432-.907c.192-.1.374-.181.544-.254s.374-.157.616-.254A2.4,2.4,0,0,1,182.67,76a2.349,2.349,0,0,1-.363,3.193,3.13,3.13,0,0,1-.726.581,28.321,28.321,0,0,1-5.079,1.96,14.356,14.356,0,0,1-5.371.435,12.516,12.516,0,0,1-7.8-3.3,14.283,14.283,0,0,1-4.173-7.728,27.017,27.017,0,0,1-.581-5.588,42.608,42.608,0,0,1,.363-5.588A62.582,62.582,0,0,1,160.246,53q.871-3.555,2.032-7.111t2.5-7q1.342-3.447,2.721-6.64M137.242,31.3a2.439,2.439,0,0,1,1.778.762,2.73,2.73,0,0,1,.835,1.779,2.519,2.519,0,0,1-.763,1.85,2.6,2.6,0,0,1-1.922.762,2.648,2.648,0,0,1-1.742-.8,2.457,2.457,0,0,1-.726-1.814,2.8,2.8,0,0,1,.8-1.779,2.319,2.319,0,0,1,1.742-.762" transform="translate(-33.832 -6.481)" fill="#c0a7ce"/>
        <path id="Trazado_1574" data-name="Trazado 1574" d="M203.9,60.376a8.551,8.551,0,0,0-.537.922l-.384.614a8.759,8.759,0,0,1-.538.922,23.3,23.3,0,0,1-2.65,3.341,5.211,5.211,0,0,1-3.955,1.574A5.377,5.377,0,0,1,191,64.6a9.982,9.982,0,0,1-1.037-3.149,19.734,19.734,0,0,1-.192-2.534,14.406,14.406,0,0,1,.078-1.46,26.638,26.638,0,0,1,2.61-8.756,20.638,20.638,0,0,1,2.573-3.955,13.948,13.948,0,0,1,3.341-2.957,6.481,6.481,0,0,1,3.3-1,5.556,5.556,0,0,1,3.917,1.69,2.123,2.123,0,0,0,.576.461.926.926,0,0,0,.345.077,1.865,1.865,0,0,0,.691-.154,4.139,4.139,0,0,1,1.306-.23,2.324,2.324,0,0,1,1.958.845,3.065,3.065,0,0,1,.653,1.92,3.594,3.594,0,0,1-.077.692l-.461,3.225-.154.922q-.23,1.612-.461,3.225a28.228,28.228,0,0,0-.306,4.147q0,.846.115,2.727a19.9,19.9,0,0,0,1.037,4.724l.23,1.152v.461a2.472,2.472,0,0,1-1.69,2.458,2.906,2.906,0,0,1-.921.154,3.95,3.95,0,0,1-1.037-.192,2.57,2.57,0,0,1-1.267-1.037,4.153,4.153,0,0,1-.576-1.114q-.192-.576-.345-1.19-.386-1.3-.653-2.65t-.653-2.727m-7.911,1.46a1.045,1.045,0,0,0,.614-.346,2.825,2.825,0,0,0,.384-.575,31.921,31.921,0,0,0,3.035-5.184Q201.292,53,202.6,50.314a1.754,1.754,0,0,0,.231-.921,2.063,2.063,0,0,0-.154-.768q-.154-.537-.307-1.152a.989.989,0,0,0-.768-.768,1.28,1.28,0,0,0-.384-.077.863.863,0,0,0-.692.423,6.789,6.789,0,0,1-.691.807,16.505,16.505,0,0,0-3.3,5.338,18.554,18.554,0,0,0-1.152,6.106v.614c0,.2.012.487.038.845a1.73,1.73,0,0,0,.576,1.076" transform="translate(-48.313 -10.385)" fill="#f2b1ca"/>
        <path id="Trazado_1575" data-name="Trazado 1575" d="M243.025,57.784v6.3a4.683,4.683,0,0,1-.384,2.074,2.377,2.377,0,0,1-2.3,1.69h-.384a2.588,2.588,0,0,1-2.458-2.074,2.667,2.667,0,0,1-.154-.845,4.012,4.012,0,0,1,.039-.461q.038-.306.115-.845.23-3.3.231-6.566a58.915,58.915,0,0,0-.385-6.644,20.07,20.07,0,0,0-.921-4.3q-.23-.69-.691-.691a1.055,1.055,0,0,0-.615.385,7.853,7.853,0,0,0-1.305,1.305,7.592,7.592,0,0,0-.922,1.536,35.993,35.993,0,0,0-2.5,7.066,29.975,29.975,0,0,0-.807,6.835V63.7a4.642,4.642,0,0,0,.038.653,3.438,3.438,0,0,1,.039.345,1.529,1.529,0,0,1-.154.691,2.485,2.485,0,0,1-.807,1.5,3.058,3.058,0,0,1-1.5.729,1.28,1.28,0,0,1-.384.078,2.645,2.645,0,0,1-1.382-.423A2.77,2.77,0,0,1,224.362,66a4.455,4.455,0,0,1-.385-2v-.922a37.972,37.972,0,0,1,4.3-17.588,12.672,12.672,0,0,1,1.344-2.112,11.664,11.664,0,0,1,1.843-1.881,9.042,9.042,0,0,1,2.227-1.344,6.208,6.208,0,0,1,2.42-.5,4.633,4.633,0,0,1,3.3,1.228,8.9,8.9,0,0,1,2.074,3.034,17.188,17.188,0,0,1,1.114,3.8,29.842,29.842,0,0,1,.423,3.533q.075,1.077.077,2.151,0,.538-.038,1.651t-.039,2.727" transform="translate(-57.021 -10.096)" fill="#f2b1ca"/>
        <path id="Trazado_1576" data-name="Trazado 1576" d="M256.921,54.452a61.645,61.645,0,0,1,.154-6.221q.23-3,.614-5.99.153-1.075.307-1.69a3.255,3.255,0,0,1,1.228-1.652,2.494,2.494,0,0,1,1.844-.422,3.031,3.031,0,0,1,1.728,1,2.588,2.588,0,0,1,.575,1.92q-.077,1.076-.192,2.189t-.269,2.189q-.386,4.147-.423,8.333a69.523,69.523,0,0,0,.423,8.333,10.005,10.005,0,0,1-.307,2.5q-.307,1.19-2.074,1.421a2.305,2.305,0,0,1-1.69-.346,3.005,3.005,0,0,1-1.152-1.5,3.888,3.888,0,0,1-.23-.883c-.051-.332-.1-.653-.154-.96q-.231-2.073-.384-4.147a26.677,26.677,0,0,1,0-4.071m7.3-20.89a2.759,2.759,0,0,1-.807,2.035,2.645,2.645,0,0,1-3.84-.039,2.793,2.793,0,0,1-.807-2,2.77,2.77,0,0,1,4.724-1.958,2.425,2.425,0,0,1,.73,1.958" transform="translate(-65.389 -7.84)" fill="#f2b1ca"/>
        <path id="Trazado_1577" data-name="Trazado 1577" d="M286.643,44.477q.537-.461,1-.921a7.932,7.932,0,0,1,1-.845,6.132,6.132,0,0,1,3.688-1.382,3.932,3.932,0,0,1,3.149,1.344,8.467,8.467,0,0,1,1.69,3.225,19.744,19.744,0,0,1,.691,3.917q.153,2.036.154,3.418a134.872,134.872,0,0,1-.692,13.595v.5a1.608,1.608,0,0,1-.076.5,3.475,3.475,0,0,1-1.229,1.767,2.538,2.538,0,0,1-1.92.461,2.614,2.614,0,0,1-1.728-.96,2.956,2.956,0,0,1-.576-2.112q.153-2.3.346-4.609t.192-4.608q.075-2.379.076-4.762a29.907,29.907,0,0,0-.384-4.762,4.306,4.306,0,0,0-.23-.537.794.794,0,0,0-.73.307q-.192.307-.345.614a11.027,11.027,0,0,0-1.229,2.189q-.461,1.114-.845,2.342-.92,2.459-3.072,2.381-2.228-.153-2.765-2.765-.23-1-.423-1.958t-.423-1.959q-.154-.614-.268-1.152a1.846,1.846,0,0,0-.653-1,4.165,4.165,0,0,0-1.19,1.229,8.461,8.461,0,0,0-.73,1.536,33.462,33.462,0,0,0-1.881,7.987,20.722,20.722,0,0,0,.807,8.141,3.433,3.433,0,0,1,0,2.265,2.322,2.322,0,0,1-1.383,1.344,3,3,0,0,1-2.112,0,3.1,3.1,0,0,1-1.652-1.536,10.188,10.188,0,0,1-.845-2.727q-.23-1.42-.384-2.88a39.823,39.823,0,0,1,.268-6.8,31,31,0,0,1,1.575-6.566,23.566,23.566,0,0,1,1.152-2.688,12.145,12.145,0,0,1,1.69-2.535,9.825,9.825,0,0,1,2.227-1.919,5.112,5.112,0,0,1,2.765-.769,4.969,4.969,0,0,1,4.148,2.151,3.9,3.9,0,0,1,.5.807,1.749,1.749,0,0,0,.653.73" transform="translate(-69.152 -10.385)" fill="#f2b1ca"/>
        <path id="Trazado_1578" data-name="Trazado 1578" d="M317.867,56.92a8.631,8.631,0,0,0,.845,3.495,7.343,7.343,0,0,0,5.07,4.032,8.18,8.18,0,0,0,3.533,0,15.462,15.462,0,0,0,3-.921,21.2,21.2,0,0,0,2.842-1.46q1.535-.844,3-1.689t3-1.691a61.513,61.513,0,0,1,7.373-3.225A22.947,22.947,0,0,1,354.426,54a15.481,15.481,0,0,1,4.109.538,11.249,11.249,0,0,1,3.494,1.612,7.907,7.907,0,0,1,2.458,2.8,9.442,9.442,0,0,1,1,4.186,9.127,9.127,0,0,1-.73,3.725,8.254,8.254,0,0,1-2,2.8,9.275,9.275,0,0,1-3,1.8,10.256,10.256,0,0,1-3.649.653,9.326,9.326,0,0,1-2.458-.384,11.937,11.937,0,0,1-1.152-.5,3.855,3.855,0,0,1-1-.73,3.5,3.5,0,0,1-.921-1.843,2.4,2.4,0,0,1,.461-1.844,2.564,2.564,0,0,1,2.151-1.152,2.968,2.968,0,0,1,1.459.384,3.245,3.245,0,0,0,1.767.537,4.44,4.44,0,0,0,1.689-.384,2.969,2.969,0,0,0,1.92-3,3.24,3.24,0,0,0-.537-1.959,3.812,3.812,0,0,0-1.383-1.152,5.555,5.555,0,0,0-1.881-.537,18.266,18.266,0,0,0-2.036-.116,14.288,14.288,0,0,0-3.456.461,31.449,31.449,0,0,0-3.725,1.19q-1.883.731-3.61,1.574t-3.111,1.613q-1.768,1-3.533,2.074a35.372,35.372,0,0,1-3.61,1.92,20.047,20.047,0,0,1-4.378,1.46,15.341,15.341,0,0,1-4.608.23,11.992,11.992,0,0,1-4.224-1.075,13.621,13.621,0,0,1-3.572-2.381,12.75,12.75,0,0,1-2.61-3.418,12.5,12.5,0,0,1-1.345-4.185,19.884,19.884,0,0,1,10.445-20.584,14.315,14.315,0,0,1,2.957-1.306,10.8,10.8,0,0,1,3.187-.46,5.827,5.827,0,0,1,4.531,1.766,5.944,5.944,0,0,1,1.383,4.685,14.058,14.058,0,0,1-1.267,4.609,15.826,15.826,0,0,1-2.689,4.032,17.624,17.624,0,0,1-3.764,3.111,13.3,13.3,0,0,1-4.416,1.767q-1.23.23-2.42.346a16.161,16.161,0,0,1-2.5.038m11.367-14.9a11.1,11.1,0,0,0-3.533,1.114,14.642,14.642,0,0,0-3.225,2.189,15.313,15.313,0,0,0-2.5,2.842,7.494,7.494,0,0,0-1.267,3.072,7.883,7.883,0,0,0,3.84-.345,10.181,10.181,0,0,0,3.456-2,10.479,10.479,0,0,0,2.458-3.149,6.854,6.854,0,0,0,.768-3.725" transform="translate(-79.485 -9.309)" fill="#f2b1ca"/>
        <path id="Trazado_1579" data-name="Trazado 1579" d="M.329,43.5a7.194,7.194,0,0,0,3.763-3.524,21.378,21.378,0,0,0,1.676-4.989A13,13,0,0,0,9.457,45.382a7.155,7.155,0,0,0-6.52,3.957A6.282,6.282,0,0,0,.448,43.233" transform="translate(-0.084 -8.908)" fill="#ff0"/>
        <path id="Trazado_1580" data-name="Trazado 1580" d="M.308,43.623c3.761-1.079,4.877-5.321,5.685-8.655l-.631-.086A13.373,13.373,0,0,0,9.117,45.53c.086-.2.171-.411.256-.616A7.562,7.562,0,0,0,2.557,49.06l.627.265A6.758,6.758,0,0,0,.56,42.791c-.4-.3-.795.378-.392.671a5.931,5.931,0,0,1,2.354,5.68c-.058.353.438.64.628.265a6.858,6.858,0,0,1,6.223-3.77.364.364,0,0,0,.255-.616A12.855,12.855,0,0,1,6,34.883c.036-.364-.544-.431-.631-.085-.829,3.3-1.937,6.829-5.248,8.395-.244.116-.071.5.182.431" transform="translate(0 -8.801)" fill="#e8c82a"/>
        <path id="Trazado_1581" data-name="Trazado 1581" d="M353.75,43.5a7.194,7.194,0,0,0,3.763-3.524,21.379,21.379,0,0,0,1.676-4.989,13,13,0,0,0,3.689,10.393,7.155,7.155,0,0,0-6.52,3.957,6.282,6.282,0,0,0-2.489-6.106" transform="translate(-90.06 -8.908)" fill="#ff0"/>
        <path id="Trazado_1582" data-name="Trazado 1582" d="M353.729,43.623c3.761-1.079,4.877-5.321,5.685-8.655l-.631-.086a13.373,13.373,0,0,0,3.755,10.648c.086-.2.171-.411.256-.616a7.562,7.562,0,0,0-6.816,4.145l.627.265a6.758,6.758,0,0,0-2.624-6.534c-.4-.3-.795.378-.392.671a5.931,5.931,0,0,1,2.354,5.68c-.058.353.438.64.628.265a6.858,6.858,0,0,1,6.223-3.77.364.364,0,0,0,.255-.616,12.855,12.855,0,0,1-3.623-10.138c.036-.364-.544-.431-.631-.085-.829,3.3-1.937,6.829-5.248,8.395-.244.116-.071.5.182.431" transform="translate(-89.976 -8.801)" fill="#e8c82a"/>
      </g>
    </g>
  </g>
</svg>
